<svg width="94" height="27" viewBox="0 0 94 27" fill="none" xmlns="http://www.w3.org/2000/svg">
<g id="2a2a2f1a3bc07739bf0ef11abf4ff29e.svg" clip-path="url(#clip0_903_132)">
<g id="Clip path group">
<mask id="mask0_903_132" style="mask-type:luminance" maskUnits="userSpaceOnUse" x="0" y="0" width="94" height="27">
<g id="coupa_svg__a">
<path id="Vector" d="M0.0263062 0.611328H93.9737V26.8613H0.0263062V0.611328Z" fill="white"/>
</g>
</mask>
<g mask="url(#mask0_903_132)">
<g id="Group">
<path id="Vector_2" fill-rule="evenodd" clip-rule="evenodd" d="M39.5415 19.6361C38.492 20.2402 37.2983 20.5481 36.0876 20.5273C32.1708 20.5273 29.8705 17.8056 29.8705 13.1911C29.8705 9.90983 31.1208 7.74766 32.7925 6.60786C33.8451 5.93349 35.0656 5.56737 36.3156 5.55095C37.2736 5.54385 38.22 5.76152 39.0787 6.18648C39.5796 6.46081 40.0438 6.79736 40.4603 7.18812L38.6504 9.63352C38.0598 9.00536 37.2629 8.61061 36.4054 8.52134C34.7336 8.52134 33.9876 9.96509 33.9876 13.3016C33.9876 15.1598 34.2363 16.272 34.6784 16.8868C34.8844 17.1344 35.1435 17.3325 35.4365 17.4664C35.7294 17.6003 36.0488 17.6667 36.3708 17.6605C37.3415 17.6131 38.2577 17.1982 38.9336 16.5L39.1547 16.2996L40.8333 18.5792C40.4567 18.9928 40.0215 19.3489 39.5415 19.6361ZM51.9343 18.524C51.3527 19.1883 50.6274 19.7114 49.8135 20.0537C48.9996 20.396 48.1185 20.5485 47.2369 20.4996C43.3754 20.4996 40.8471 17.6052 40.8471 13.1358C40.8471 8.66641 43.4031 5.68911 47.2369 5.68911C48.1533 5.65052 49.0662 5.82364 49.9048 6.19502C50.7434 6.56641 51.4852 7.12607 52.0725 7.83055C53.2123 9.16378 53.7096 10.7181 53.7096 13.0253C53.7096 15.4707 53.157 17.1355 51.9343 18.524ZM48.9017 9.19141C48.7113 8.94851 48.4663 8.75381 48.1867 8.62301C47.9072 8.49221 47.6007 8.42899 47.2922 8.43845C46.8602 8.44062 46.4405 8.58237 46.0957 8.84255C45.7509 9.10273 45.4994 9.46741 45.3787 9.8822C45.076 10.9108 44.9407 11.9814 44.978 13.0529C44.9166 14.2666 45.0782 15.4817 45.4547 16.6381C45.6261 16.9914 45.8944 17.2887 46.2283 17.4954C46.5622 17.702 46.9479 17.8096 47.3405 17.8056C48.9501 17.8056 49.6478 16.3549 49.6478 12.97C49.6547 11.0773 49.406 9.82694 48.9017 9.19141ZM63.0747 19.2009C63.3109 19.7536 63.6929 20.2316 64.1799 20.5825L66.8256 19.0835C66.255 18.3442 65.9507 17.4338 65.9622 16.5V5.63384L62.4046 6.3868V16.3894C62.1695 16.7972 61.8342 17.1381 61.4304 17.3799C61.0266 17.6216 60.5678 17.7563 60.0974 17.771C59.8386 17.7784 59.5824 17.7186 59.3536 17.5976C59.1248 17.4765 58.9312 17.2983 58.7918 17.0802C58.5272 16.332 58.4236 15.5364 58.4878 14.7454V5.60621L54.8197 6.297V15.4431C54.762 16.3975 54.8647 17.3548 55.1237 18.2753C55.6003 19.6361 57.3204 20.5825 59.3237 20.5825C60.7057 20.625 62.0504 20.1298 63.0747 19.2009ZM78.7701 18.8832C78.2851 19.4052 77.6953 19.819 77.0395 20.0976C76.3836 20.3761 75.6763 20.5131 74.9638 20.4996C73.9251 20.5112 72.9013 20.2517 71.9934 19.7467C72.0411 20.1335 72.0598 20.5245 72.0487 20.9141V25.3628L68.4635 26.3023V9.85457C68.5089 8.65513 68.4348 7.45415 68.2425 6.26937L71.5444 5.68911C71.6757 6.12361 71.7593 6.57055 71.7931 7.02233C72.2566 6.57513 72.8059 6.22645 73.4078 5.99731C74.0098 5.76817 74.6519 5.66333 75.2954 5.68911C76.3065 5.68903 77.2947 5.9896 78.1346 6.55259C79.6681 7.57496 80.7803 9.41246 80.7803 12.6937C80.7457 15.747 80.2415 17.3013 78.7701 18.8832ZM76.3247 9.90292C76.207 9.53267 75.9675 9.2131 75.6452 8.99615C75.3229 8.77919 74.9367 8.67759 74.5494 8.70786C74.0854 8.71327 73.6274 8.81209 73.2025 8.99843C72.7776 9.18476 72.3946 9.45479 72.0763 9.7924V16.7003C72.6585 17.1948 73.3861 17.4858 74.1487 17.5292C75.9862 17.5292 76.7046 16.2789 76.7046 13.0322C76.7404 11.978 76.6122 10.9247 76.3247 9.90983V9.90292ZM90.0521 19.194C90.5032 19.9772 91.2072 20.5838 92.0484 20.9141L93.9896 18.6345C92.7392 17.6881 92.6563 17.025 92.6563 15.4707L92.7392 10.6904C92.824 9.83038 92.7395 8.96208 92.4905 8.1345C91.931 6.55259 90.2938 5.66148 87.9037 5.66148C86.5631 5.66449 85.2381 5.94927 84.0146 6.49733C83.2093 6.81035 82.4365 7.20135 81.7073 7.66477L83.2961 10.3312C84.8573 9.30194 86.2458 8.71476 87.4409 8.71476C88.8017 8.71476 89.1057 9.24667 89.1057 10.8286V11.4158C88.828 11.3874 88.5489 11.3759 88.2698 11.3812C83.7451 11.3812 81.4379 12.9424 81.4379 16.272C81.4379 19.1111 83.158 20.7207 86.3287 20.7207C87.3399 20.764 88.3396 20.4912 89.1886 19.9401C89.4963 19.7154 89.7851 19.4659 90.0521 19.194ZM85.4307 16.1684C85.4307 14.4759 86.3011 14.0062 88.8846 14.0062H89.0711L89.0159 17.0595C88.7771 17.347 88.4813 17.582 88.1472 17.7496C87.8132 17.9173 87.448 18.0139 87.0748 18.0335C86.7231 18.025 86.3828 17.9073 86.101 17.6968C85.8191 17.4862 85.6098 17.1933 85.5018 16.8585C85.4307 16.636 85.4065 16.4005 85.4307 16.1684Z" fill="url(#paint0_linear_903_132)"/>
<path id="Vector_3" d="M21.5513 11.1944C21.0956 10.9767 20.6349 10.7694 20.1697 10.5727C20.6256 10.4829 21.0954 10.3724 21.5513 10.2412C24.7634 9.37076 26.8151 7.98918 26.3246 7.11188C25.8342 6.23458 23.1125 6.20004 20.0384 6.92537C19.5963 7.02899 19.1681 7.14642 18.7536 7.27076C18.9677 6.953 19.1819 6.62833 19.3753 6.28984C20.674 4.00333 20.9227 2.04839 20.0661 1.68228C19.2095 1.31616 17.4618 2.59412 15.9628 4.74247C15.7417 5.06714 15.5414 5.39182 15.3549 5.71649C15.2582 5.35728 15.1408 5.0257 15.0095 4.63885C14.146 2.20728 12.7437 0.535565 11.8181 0.680631C10.8924 0.825697 10.5954 2.83589 11.3069 5.39872C11.4174 5.77866 11.5348 6.15168 11.673 6.51089C11.2654 6.28984 10.8648 6.0826 10.4365 5.91681C7.46608 4.49379 4.55095 3.94807 3.8118 4.67339C3.07266 5.39872 4.8618 7.29839 8.01871 8.87339C8.47878 9.09928 8.92779 9.30652 9.36575 9.4951C8.84766 9.58491 8.30194 9.69543 7.7493 9.82668C3.60457 10.8145 -0.0289852 12.5898 0.00555431 13.8056C0.0400938 15.0214 3.99141 15.056 8.48845 13.8056C9.08253 13.6467 9.65588 13.4671 10.1947 13.2875C9.8493 13.7227 9.50391 14.1994 9.15161 14.6691C6.38845 18.6757 4.83417 23.0898 6.11904 23.8635C7.40391 24.6372 10.8371 21.2523 13.2963 16.9694C13.6072 16.4237 13.8835 15.8987 14.1253 15.3875C14.2358 15.9264 14.374 16.4859 14.5329 17.0731C15.8108 21.653 18.1802 25.4385 19.5894 24.8514C20.9986 24.2642 20.598 19.8777 19.0437 15.6224C18.8434 15.0767 18.6361 14.5655 18.422 14.0819C18.8848 14.3583 19.3753 14.6208 19.8865 14.8833C23.6789 16.7898 27.1467 17.4254 27.4852 16.2648C27.8236 15.1043 25.0674 12.88 21.5513 11.1944Z" fill="#A7A1CF"/>
<path id="Vector_4" d="M11.2779 12.528C10.8772 12.6661 10.442 12.7974 9.99301 12.9217C8.7938 13.2526 7.56557 13.4674 6.32492 13.5642C3.244 15.9474 1.10255 18.5517 1.70353 19.5464C2.30452 20.5411 5.30946 19.4704 8.55617 17.3359C9.06114 16.0153 9.71961 14.7586 10.518 13.5918C10.7736 13.2119 11.0292 12.8595 11.2779 12.528ZM10.5747 9.61284C10.2293 9.46777 9.88386 9.30889 9.52465 9.12929C8.64164 8.6988 7.80978 8.17049 7.04472 7.55429C3.91544 7.45758 1.31807 7.94804 0.945048 8.82534C0.572022 9.70264 2.5684 10.6628 5.60097 11.1671C6.79983 10.6054 8.05488 10.1724 9.34505 9.87534C9.74571 9.77172 10.1809 9.68882 10.5747 9.61284ZM12.3134 7.25034C12.2028 6.96021 12.0992 6.66317 12.0094 6.35922C11.7837 5.61061 11.6651 4.83383 11.6571 4.05198C9.92324 2.51843 8.20317 1.68948 7.45021 2.06942C6.69725 2.44935 7.05646 3.90001 8.29298 5.66152C9.35196 5.90537 10.3792 6.27149 11.3532 6.75297C11.6917 6.91185 12.0094 7.08455 12.3134 7.25034ZM17.9329 7.85132C18.2645 7.74771 18.6237 7.651 18.9622 7.5681C19.8672 7.33876 20.7928 7.20475 21.7254 7.16744C23.3626 5.66843 24.0602 4.27994 23.4454 3.76876C22.8306 3.25758 21.2626 3.66514 19.4181 4.68751C19.224 5.5205 18.9 6.31775 18.4579 7.05001C18.2783 7.29869 18.1126 7.59573 17.9329 7.85132ZM14.2918 14.0822C14.1122 14.4553 13.898 14.849 13.6701 15.2428C13.0204 16.3726 12.2565 17.4327 11.3905 18.4066C11.0313 22.4408 11.6392 25.9086 13.0069 26.0053C14.3747 26.102 15.625 22.9658 16.2191 19.1734C15.5107 17.9663 14.9605 16.6731 14.5819 15.3257C14.4714 14.8974 14.3747 14.4829 14.2918 14.0822ZM15.2706 6.6079C15.4157 6.3385 15.5815 6.076 15.7542 5.8135C16.1938 5.14902 16.7135 4.54117 17.3016 4.00363C17.2532 2.06251 16.6868 0.680931 15.92 0.598036C15.1532 0.515141 14.3243 1.64113 13.8476 3.41646C14.3411 4.12506 14.7274 4.90248 14.9943 5.72369C15.0979 6.01383 15.1877 6.31086 15.2706 6.6079ZM27.7746 11.1809C27.6434 10.352 25.6401 9.50231 22.9874 9.04639C22.0811 9.55363 21.1128 9.94139 20.1069 10.2C19.7338 10.3036 19.3677 10.3865 19.0016 10.4625C19.3608 10.6007 19.6924 10.7665 20.093 10.9461C21.0708 11.4146 22.0008 11.9767 22.87 12.6247C25.8473 12.6661 27.9197 12.072 27.7746 11.1809ZM17.5875 13.122C17.7464 13.4882 17.8984 13.8681 18.0435 14.2757C18.452 15.4095 18.7391 16.5835 18.9 17.778C21.532 20.3822 24.157 21.8674 24.9237 20.9763C25.6905 20.0852 24.4056 17.626 22.2918 15.0632C21.0545 14.7632 19.8578 14.3155 18.7274 13.7299C18.306 13.5158 17.9329 13.3293 17.5875 13.122Z" fill="#E0D7F5"/>
<path id="Vector_5" d="M22.8707 12.625C21.9883 11.9747 21.0443 11.4125 20.0523 10.9463C19.6944 10.7698 19.3304 10.6062 18.9608 10.4559C19.3269 10.3868 19.6931 10.3039 20.0661 10.2003C21.0816 9.94393 22.0592 9.55612 22.9743 9.04667C23.7825 8.56311 24.1832 8.07265 23.9898 7.70654C23.7963 7.34042 22.919 7.12627 21.7378 7.16772C20.8052 7.20848 19.8796 7.34249 18.9746 7.56838C18.6154 7.65127 18.2838 7.74798 17.9454 7.8516C18.125 7.59601 18.2908 7.3266 18.4496 7.05029C18.8964 6.31963 19.2229 5.52197 19.4167 4.68779C19.5687 3.93483 19.472 3.3891 19.1059 3.23022C18.7398 3.07134 18.0352 3.35456 17.3098 3.997C16.7173 4.53214 16.195 5.14028 15.7556 5.80686C15.5803 6.0652 15.4188 6.33268 15.272 6.60818C15.196 6.31805 15.1062 6.02101 15.0026 5.73088C14.7192 4.90406 14.314 4.1241 13.8006 3.41673C13.2963 2.72594 12.7783 2.37364 12.3707 2.44963C11.9631 2.52561 11.6799 3.14042 11.6799 4.05917C11.6875 4.84114 11.8063 5.61828 12.0322 6.3664C12.122 6.67035 12.2256 6.96739 12.3361 7.25752C12.0322 7.09173 11.7144 6.91904 11.3759 6.76015C10.3951 6.27557 9.36119 5.90697 8.29503 5.6618C7.23812 5.43384 6.41608 5.45456 6.11904 5.77233C5.822 6.09009 6.1674 6.80851 7.0447 7.55456C7.80976 8.17076 8.64162 8.69907 9.52463 9.12956C9.87694 9.30917 10.2154 9.46805 10.5746 9.61311C10.1809 9.6891 9.76641 9.772 9.33812 9.87561C8.0503 10.1731 6.7976 10.6061 5.60095 11.1674C4.36443 11.7615 3.59075 12.397 3.63911 12.8875C3.68746 13.3779 4.772 13.668 6.34009 13.5782C7.57816 13.4812 8.80413 13.2661 10.0013 12.9358C10.4503 12.8115 10.8855 12.6802 11.2861 12.5421C11.0375 12.8736 10.7819 13.2329 10.5263 13.6059C9.72788 14.7727 9.06941 16.0294 8.56443 17.35C8.06016 18.7315 7.98417 19.8299 8.50917 20.1131C9.03417 20.3963 10.2085 19.7125 11.3967 18.4069C12.2627 17.433 13.0266 16.3728 13.6763 15.243C13.9042 14.8493 14.1184 14.4555 14.298 14.0825C14.3809 14.4832 14.4845 14.8977 14.6088 15.3259C14.983 16.6629 15.5262 17.9466 16.2253 19.146C16.9644 20.3687 17.745 21.0802 18.2977 20.8661C18.8503 20.6519 19.0921 19.4016 18.8848 17.7782C18.7261 16.5841 18.4413 15.4101 18.0352 14.2759C17.8901 13.8684 17.7381 13.4884 17.5792 13.1223C17.9246 13.3296 18.27 13.5299 18.6914 13.7302C19.8305 14.3181 21.0366 14.7657 22.2835 15.0634C23.4855 15.3259 24.3559 15.2638 24.5079 14.8009C24.6598 14.3381 24.0243 13.5161 22.8707 12.625Z" fill="#F8F3FF"/>
</g>
</g>
</g>
</g>
<defs>
<linearGradient id="paint0_linear_903_132" x1="29.7303" y1="5.44733" x2="93.9737" y2="26.171" gradientUnits="userSpaceOnUse">
<stop stop-color="#FBF6FF"/>
<stop offset="1" stop-color="#DADBFF"/>
</linearGradient>
<clipPath id="clip0_903_132">
<rect width="93.9474" height="26.25" fill="white" transform="translate(0.0263062 0.611328)"/>
</clipPath>
</defs>
</svg>
