<svg width="157" height="37" viewBox="0 0 157 37" fill="none" xmlns="http://www.w3.org/2000/svg">
<g id="3cd5b87bffe7105532a26f2326669166.svg" clip-path="url(#clip0_903_229)">
<g id="Clip path group">
<mask id="mask0_903_229" style="mask-type:luminance" maskUnits="userSpaceOnUse" x="0" y="2" width="157" height="32">
<g id="procure-tech_svg__a">
<path id="Vector" d="M0.0125122 2.57227H156.988V33.9673H0.0125122V2.57227Z" fill="white"/>
</g>
</mask>
<g mask="url(#mask0_903_229)">
<g id="Group">
<path id="Vector_2" fill-rule="evenodd" clip-rule="evenodd" d="M135.918 26.2957V31.1473C135.918 31.8268 136.191 32.4782 136.677 32.9581C137.163 33.4392 137.822 33.7094 138.509 33.7094H141.807C142.493 33.7088 143.152 33.4391 143.642 32.9581C143.882 32.7206 144.073 32.4379 144.203 32.1263C144.333 31.8147 144.4 31.4805 144.4 31.1428L144.396 23.3984H148.811C150.979 23.3984 153.059 22.5462 154.591 21.0325C155.349 20.2859 155.95 19.3964 156.361 18.4156C156.773 17.4347 156.985 16.3821 156.986 15.3186V10.652C156.966 8.50917 156.098 6.4615 154.572 4.95716C153.036 3.44265 150.969 2.58708 148.811 2.57227H144.09C141.932 2.58715 139.865 3.44316 138.329 4.95829C136.803 6.46287 135.935 8.51111 135.916 10.6542V11.8573C135.916 13.2701 136.483 14.6268 137.492 15.6281C138.507 16.6315 139.875 17.1961 141.301 17.2001L147.826 17.2248C148.577 17.2247 149.299 16.9286 149.834 16.4006C150.367 15.8737 150.666 15.1605 150.667 14.416V11.5927C150.667 11.2231 150.593 10.8573 150.45 10.5164C150.307 10.1756 150.098 9.86644 149.835 9.60699C149.3 9.07923 148.578 8.78357 147.826 8.78399H145.084C144.336 8.78401 143.617 9.07748 143.083 9.60138C142.82 9.85883 142.61 10.1657 142.466 10.5043C142.322 10.843 142.246 11.2068 142.243 11.5748L142.22 15.0585L140.998 15.054C140.228 15.0463 139.492 14.7376 138.947 14.194C138.406 13.6534 138.102 12.9202 138.101 12.1556V10.6531C138.104 9.87447 138.261 9.10414 138.563 8.3864C138.865 7.66866 139.306 7.01767 139.86 6.47085C140.988 5.36 142.507 4.73597 144.09 4.73291H148.814C150.397 4.73597 151.915 5.36 153.043 6.47085C153.598 7.01741 154.039 7.66835 154.341 8.38615C154.643 9.10395 154.799 9.8744 154.802 10.6531V15.3186C154.802 16.8884 154.171 18.3942 153.047 19.5043C151.919 20.617 150.398 21.2403 148.814 21.2388H141.034C139.678 21.2388 138.376 21.7714 137.416 22.7189C136.942 23.1861 136.565 23.743 136.308 24.357C136.051 24.971 135.918 25.63 135.918 26.2957ZM147.833 15.0619L144.406 15.0574L144.428 11.5849C144.429 11.4998 144.446 11.4156 144.48 11.3373C144.513 11.2589 144.561 11.188 144.622 11.1285C144.746 11.0075 144.912 10.9399 145.084 10.9402H147.826C148 10.9403 148.166 11.0087 148.29 11.1308C148.413 11.2519 148.483 11.4167 148.483 11.5894V14.4127C148.483 14.4977 148.466 14.582 148.433 14.6605C148.401 14.739 148.353 14.8103 148.292 14.8701C148.17 14.9915 148.005 15.0603 147.833 15.0619ZM138.1 30.8334V26.2732H138.103C138.103 25.5108 138.408 24.782 138.952 24.2427C139.499 23.7028 140.236 23.3995 141.004 23.3984H142.205V30.8334C142.205 30.9279 142.186 31.0215 142.15 31.1087C142.114 31.1959 142.061 31.2751 141.993 31.3415C141.926 31.408 141.846 31.4604 141.759 31.4958C141.671 31.5312 141.577 31.5488 141.483 31.5476H138.823C138.632 31.548 138.448 31.473 138.312 31.3391C138.245 31.2732 138.192 31.1946 138.155 31.108C138.119 31.0214 138.1 30.9273 138.1 30.8334ZM12.0267 18.6846C11.0277 17.6979 9.47026 17.2124 7.35782 17.2281L0.0125122 17.2517V33.7083H3.32581V28.0022H7.18851C9.33346 28.0022 10.9256 27.5089 11.965 26.5222C12.4859 26.0189 12.8948 25.4114 13.1648 24.7394C13.4339 24.0666 13.5572 23.349 13.5258 22.6269C13.5602 21.9033 13.4449 21.1804 13.1872 20.5033C12.9288 19.8241 12.5338 19.2051 12.0267 18.6846ZM9.29086 24.7954C8.62322 25.2487 7.82778 25.4759 7.02145 25.4435L3.32468 25.4458L3.34935 19.7868H7.02032C7.83099 19.7532 8.63044 19.9774 9.30095 20.4259C9.61938 20.695 9.86606 21.0348 10.0208 21.4194C10.1755 21.8028 10.2338 22.2177 10.189 22.6281C10.2289 23.0347 10.1677 23.4449 10.0107 23.8222C9.85372 24.1989 9.60705 24.5331 9.28973 24.7943L9.29086 24.7954ZM17.633 22.1044V24.283C17.8949 23.5701 18.3732 22.957 19.0009 22.5294C19.6227 22.1543 20.3392 21.9655 21.0651 21.9856H22.0765V24.6127H21.0909C20.1836 24.5927 19.3046 24.9288 18.6421 25.5489C17.9693 26.1723 17.6341 27.2577 17.6341 28.805V33.7049H14.3914V22.1044H17.633ZM24.9278 33.234C25.8986 33.737 26.9798 33.9891 28.0729 33.9673C29.1737 33.9908 30.263 33.7387 31.2416 33.234C32.1437 32.7544 32.8861 32.0217 33.3775 31.126C33.8822 30.1276 34.1451 29.0245 34.1451 27.9058C34.1451 26.7871 33.8822 25.684 33.3775 24.6856C32.8856 23.7905 32.1433 23.0583 31.2416 22.5787C30.2596 22.0954 29.1797 21.8441 28.0853 21.8441C26.9908 21.8441 25.9109 22.0954 24.9289 22.5787C24.0284 23.0566 23.2891 23.7899 22.8042 24.6867C22.3074 25.6873 22.0489 26.7892 22.0489 27.9063C22.0489 29.0235 22.3074 30.1254 22.8042 31.126C23.2886 32.0228 24.0275 32.7562 24.9278 33.234ZM29.23 31.2381C28.8712 31.4142 28.4732 31.4983 28.0729 31.4815C27.5292 31.4978 26.9958 31.3312 26.5581 31.0083C26.1317 30.6791 25.8071 30.2359 25.6219 29.7301C25.4056 29.1466 25.2999 28.528 25.3102 27.9058C25.2731 26.9951 25.526 26.0961 26.0322 25.3381C26.259 25.012 26.565 24.7488 26.9214 24.5734C27.2789 24.3974 27.6748 24.3141 28.0729 24.3312C28.4732 24.3144 28.8712 24.3985 29.2289 24.5746C29.5877 24.7506 29.8961 25.0118 30.1259 25.337C30.6037 26.1086 30.8568 26.9982 30.8568 27.9058C30.8568 28.8134 30.6037 29.7029 30.1259 30.4746C29.8957 30.8003 29.5873 31.0629 29.2289 31.2381H29.23ZM46.6991 29.517C46.6351 30.1658 46.4345 30.7936 46.1105 31.3592C45.7853 31.9266 45.3447 32.4199 44.8154 32.8068C43.6902 33.5993 42.3386 34.0064 40.9628 33.9673C39.8697 33.9891 38.7885 33.737 37.8177 33.234C36.9174 32.7562 36.1785 32.0228 35.6941 31.126C35.1973 30.1254 34.9387 29.0235 34.9387 27.9063C34.9387 26.7892 35.1973 25.6873 35.6941 24.6867C36.1787 23.7901 36.9176 23.0568 37.8177 22.5787C38.7884 22.0753 39.8696 21.8228 40.9628 21.8443C42.3353 21.8038 43.6837 22.2112 44.8042 23.0048C45.3312 23.3961 45.7718 23.8895 46.0981 24.4557C46.4233 25.0219 46.6285 25.6476 46.7002 26.2957H43.3365C43.2146 25.7266 42.9069 25.2142 42.4619 24.8392C42.0364 24.4992 41.5051 24.3191 40.9606 24.3301C40.5624 24.3134 40.1664 24.397 39.809 24.5734C39.4529 24.7482 39.147 25.0106 38.9199 25.3359C38.4495 26.1103 38.2007 26.9991 38.2007 27.9052C38.2007 28.8114 38.4495 29.7001 38.9199 30.4746C39.1487 30.7996 39.4554 31.062 39.8119 31.2377C40.1685 31.4134 40.5634 31.4969 40.9606 31.4803C41.5055 31.4915 42.037 31.3121 42.4608 30.9724C42.9082 30.5957 43.2154 30.0844 43.3376 29.5159H46.7002L46.6991 29.517ZM55.5592 32.263L55.6075 33.7071H58.8501V22.1056H55.6097V28.6167C55.6278 29.1845 55.5254 29.7496 55.3092 30.275C55.1332 30.6888 54.8311 31.0365 54.4458 31.2684C54.0395 31.4972 53.5788 31.6115 53.1127 31.5992C52.8228 31.6067 52.5349 31.5502 52.2694 31.4337C52.0039 31.3172 51.7673 31.1436 51.5766 30.9253C51.1102 30.2503 50.8977 29.4321 50.9767 28.6155V22.1044H47.7363V29.0898C47.6972 30.0698 47.9078 31.0437 48.3485 31.9199C48.6949 32.5926 49.2444 33.142 49.9205 33.4941C50.5625 33.8099 51.2692 33.9719 51.9847 33.9673C52.6939 33.9855 53.3985 33.8481 54.0489 33.5647C54.6566 33.2689 55.177 32.8204 55.5592 32.263ZM63.5739 22.1044V24.283C63.8359 23.5701 64.3142 22.957 64.9419 22.5294C65.5637 22.1542 66.2801 21.9655 67.0061 21.9856H68.0152V24.6127H67.0296C66.1224 24.5927 65.2433 24.9288 64.5808 25.5489C63.9092 26.1723 63.5739 27.2577 63.5728 28.805V33.7049H60.3324V22.1044H63.5739ZM72.1212 30.7594C71.6469 30.2542 71.3737 29.593 71.3532 28.9003L79.9005 28.9048V28.0751C79.9325 26.9061 79.6769 25.7471 79.1559 24.7001C78.6971 23.7992 77.9784 23.0566 77.0928 22.5686C76.1462 22.0712 75.0886 21.8228 74.0195 21.8466C72.9263 21.8251 71.845 22.0775 70.8744 22.581C69.9743 23.059 69.2354 23.7924 68.7507 24.6889C68.2285 25.68 67.9684 26.7881 67.995 27.908C67.9692 29.0259 68.2473 30.1281 68.799 31.1047C69.3198 32.0056 70.0853 32.7403 71.0067 33.2239C71.9867 33.7318 73.081 33.9886 74.1877 33.9695C75.032 33.9729 75.8696 33.8237 76.66 33.5322C77.4326 33.2474 78.1245 32.7791 78.676 32.1677C79.2546 31.514 79.6291 30.7078 79.7569 29.8478H76.5389C76.4793 30.1332 76.3537 30.4006 76.1723 30.6288C75.9908 30.857 75.7585 31.0395 75.4939 31.1619C75.0205 31.3685 74.5102 31.4772 73.9937 31.4815C73.6486 31.4976 73.3038 31.4418 72.9815 31.3175C72.6591 31.1932 72.3661 31.0031 72.1212 30.7594ZM72.979 24.4983C73.3102 24.3714 73.664 24.3141 74.0184 24.3301C74.6879 24.3303 75.3304 24.5941 75.8068 25.0645C76.327 25.5568 76.6399 26.225 76.6825 26.9359H71.2579C71.3124 26.234 71.6093 25.5728 72.0977 25.0657C72.3488 24.8179 72.6493 24.625 72.979 24.4983ZM77.0413 19.8081V17.2517H91.853V19.8081H86.1155V33.7071H82.7787V19.8081H77.0413ZM92.7904 30.7594C92.316 30.2542 92.0428 29.593 92.0223 28.9003L100.57 28.9048V28.0751C100.602 26.9061 100.346 25.7471 99.8251 24.7001C99.3662 23.7991 98.6475 23.0566 97.762 22.5686C96.8157 22.0714 95.7585 21.823 94.6898 21.8466C93.5961 21.8249 92.5145 22.0774 91.5435 22.581C90.643 23.0589 89.9038 23.7922 89.4187 24.6889C88.8965 25.68 88.6364 26.7881 88.663 27.908C88.6384 29.0259 88.9153 30.1281 89.467 31.1047C89.9881 32.0057 90.754 32.7406 91.6758 33.2239C92.6558 33.7318 93.7501 33.9886 94.8568 33.9695C95.7011 33.9729 96.5387 33.8237 97.3292 33.5322C98.1017 33.2473 98.7936 32.779 99.3452 32.1677C99.9237 31.514 100.298 30.7078 100.426 29.8478H97.2081C97.1466 30.1323 97.0205 30.3988 96.8394 30.6266C96.6584 30.8545 96.4274 31.0377 96.1642 31.1619C95.6904 31.3686 95.1797 31.4773 94.6628 31.4815C94.3177 31.4978 93.9729 31.442 93.6505 31.3177C93.3281 31.1934 93.0352 31.0032 92.7904 30.7594ZM93.6481 24.4983C93.979 24.3715 94.3324 24.3143 94.6864 24.3301H94.6841C95.3544 24.3297 95.9978 24.5936 96.4748 25.0645C96.9962 25.5568 97.309 26.225 97.3516 26.9359H91.9259C91.9807 26.2338 92.278 25.5726 92.7668 25.0657C93.0168 24.8179 93.3173 24.625 93.6481 24.4983ZM113.243 29.517C113.18 30.1659 112.979 30.7939 112.654 31.3592C112.329 31.9273 111.888 32.4205 111.359 32.8068C110.234 33.5994 108.883 34.0065 107.507 33.9673C106.414 33.9891 105.332 33.7371 104.362 33.234C103.461 32.7562 102.722 32.0228 102.238 31.126C101.741 30.1254 101.483 29.0235 101.483 27.9063C101.483 26.7892 101.741 25.6873 102.238 24.6867C102.723 23.7901 103.462 23.0568 104.362 22.5787C105.332 22.0753 106.414 21.8228 107.507 21.8443C108.879 21.8041 110.227 22.2114 111.347 23.0048C111.874 23.3961 112.315 23.8895 112.641 24.4557C112.967 25.0219 113.172 25.6476 113.243 26.2957H109.883C109.761 25.7264 109.453 25.214 109.007 24.8392C108.581 24.4992 108.05 24.3191 107.506 24.3301C107.107 24.3134 106.711 24.3971 106.354 24.5734C105.998 24.7485 105.693 25.0108 105.466 25.3359C104.996 26.1103 104.747 26.9991 104.747 27.9052C104.747 28.8114 104.996 29.7001 105.466 30.4746C105.691 30.7997 105.998 31.0621 106.354 31.2381C106.711 31.4142 107.108 31.4983 107.506 31.4815C108.052 31.4927 108.582 31.311 109.007 30.9724C109.453 30.5957 109.762 30.0844 109.883 29.5159L113.243 29.517ZM117.703 23.5486L117.656 17.2517H114.41V33.7071H117.652V27.1949C117.633 26.6276 117.735 26.0628 117.951 25.5377C118.126 25.1251 118.429 24.7764 118.816 24.5432C119.214 24.3162 119.666 24.2015 120.124 24.2113C120.418 24.2023 120.71 24.2581 120.98 24.3748C121.25 24.4914 121.49 24.6661 121.685 24.8863C122.151 25.5624 122.363 26.3798 122.285 27.1949V33.706H125.504V26.7206C125.542 25.7411 125.332 24.7678 124.892 23.8917C124.544 23.219 123.995 22.6696 123.319 22.3175C122.685 22.0034 121.986 21.8414 121.279 21.8443C120.57 21.8261 119.865 21.9635 119.215 22.2468C118.607 22.5427 118.086 22.9913 117.703 23.5486Z" fill="url(#paint0_radial_903_229)"/>
</g>
</g>
</g>
</g>
<defs>
<radialGradient id="paint0_radial_903_229" cx="0" cy="0" r="1" gradientUnits="userSpaceOnUse" gradientTransform="translate(156.988 2.57324) rotate(167.32) scale(160.899 804.403)">
<stop offset="0.431" stop-color="#C8CEFF"/>
<stop offset="1" stop-color="#A098FF"/>
</radialGradient>
<clipPath id="clip0_903_229">
<rect width="156.975" height="35.88" fill="white" transform="translate(0.0125122 0.330078)"/>
</clipPath>
</defs>
</svg>
