<svg width="118" height="37" viewBox="0 0 118 37" fill="none" xmlns="http://www.w3.org/2000/svg">
<g id="092dc87610a47f730c4fa532884f4e08.svg" clip-path="url(#clip0_903_253)">
<path id="Vector" fill-rule="evenodd" clip-rule="evenodd" d="M15.1118 10.3133C15.1118 10.1931 15.6793 9.31619 16.8711 7.59356C17.8393 6.19475 18.6694 5.05078 18.7162 5.05078C18.7629 5.05078 18.8497 5.10308 18.9076 5.16651C19.1635 5.44694 26.4658 15.6025 26.6895 15.9897C27.4851 17.3674 27.7778 19.3059 27.4328 20.9195C27.2637 21.7096 27.0456 22.2437 26.1509 24.0687L25.4888 25.4175L25.0737 24.831C24.8444 24.5083 22.5098 21.1498 19.8846 17.3674C16.5651 12.5845 15.1118 10.4368 15.1118 10.3133ZM9.48096 18.5726C10.4736 17.413 12.0671 16.5139 13.7063 16.1856C14.0401 16.1188 14.6166 16.0632 15.0072 16.0621C15.6348 16.0576 19.0244 16.2857 19.0678 16.3347C19.0778 16.3458 17.5789 18.3834 15.7372 20.8638C13.8955 23.3421 12.3876 25.393 12.3854 25.4208C12.3832 25.4486 17.1672 25.4709 23.0172 25.4709C33.0459 25.4709 33.6624 25.4776 33.7981 25.5866C34.0318 25.7758 37.881 31.44 37.8566 31.5591C37.8354 31.6615 37.18 31.6726 29.2912 31.7127C24.5929 31.736 20.4132 31.7305 20.0037 31.6993C18.2399 31.5658 16.6686 30.9181 15.3833 29.7942C14.7913 29.2767 14.3228 28.6535 13.2923 27.0121C12.7838 26.1998 12.3464 25.5377 12.3209 25.5377C12.2964 25.5377 11.2692 26.8986 10.0396 28.5612C8.80993 30.2248 7.75943 31.627 7.70602 31.677C7.62367 31.7549 6.98603 31.7672 3.81451 31.7527L0.0209351 31.736L0.0253863 31.5702C0.0298376 31.4033 8.70866 19.4739 9.48096 18.5726ZM98.2177 19.5173C98.2177 13.5783 102.315 9.50203 108.113 9.50203C113.912 9.50203 117.98 13.4325 117.98 19.5173C117.98 25.6022 114.084 29.5327 108.113 29.5327C102.143 29.5327 98.2177 25.4564 98.2177 19.5173ZM114.72 19.5173C114.72 15.2664 112.066 12.5011 108.114 12.5011C104.161 12.5011 101.507 15.2664 101.507 19.5173C101.507 23.7683 104.161 26.5336 108.114 26.5336C112.066 26.5336 114.72 23.7683 114.72 19.5173ZM40.1623 12.9963H46.0023C46.0469 12.9963 46.0825 13.0319 46.0825 13.0764V29.0141C46.0825 29.0586 46.1192 29.0953 46.1626 29.0953H49.234C49.2785 29.0953 49.3141 29.0597 49.3141 29.0141V13.0775C49.3141 13.033 49.3497 12.9963 49.3942 12.9963H55.2632C55.3077 12.9963 55.3433 12.9595 55.3433 12.915V10.0195C55.3433 9.99814 55.3349 9.97764 55.3199 9.96244C55.3049 9.94723 55.2845 9.93855 55.2632 9.93825H40.1623C40.141 9.93855 40.1206 9.94723 40.1056 9.96244C40.0906 9.97764 40.0822 9.99814 40.0822 10.0195V12.915C40.0822 12.9595 40.1178 12.9951 40.1623 12.9951V12.9963ZM67.7556 9.93937H56.8679C56.8465 9.93966 56.8261 9.94835 56.8111 9.96355C56.7961 9.97875 56.7877 9.99925 56.7877 10.0206V29.0152C56.7877 29.0597 56.8233 29.0964 56.8679 29.0964H68.016C68.0605 29.0964 68.0961 29.0597 68.0961 29.0152V26.1197C68.0961 26.0983 68.0877 26.0778 68.0727 26.0626C68.0577 26.0474 68.0374 26.0387 68.016 26.0384H60.0995C60.0779 26.0384 60.0573 26.0299 60.042 26.0146C60.0268 25.9994 60.0182 25.9787 60.0182 25.9572V21.0252C60.0182 20.9807 60.0549 20.944 60.0995 20.944H67.4674C67.5119 20.944 67.5486 20.9072 67.5486 20.8627V17.9394C67.5486 17.9178 67.5401 17.8972 67.5248 17.8819C67.5096 17.8667 67.4889 17.8581 67.4674 17.8581H60.0995C60.0779 17.8581 60.0573 17.8496 60.042 17.8343C60.0268 17.8191 60.0182 17.7985 60.0182 17.7769V13.0775C60.0182 13.033 60.0549 12.9963 60.0995 12.9963H67.7556C67.8001 12.9963 67.8357 12.9595 67.8357 12.915V10.0206C67.8357 9.99925 67.8273 9.97875 67.8123 9.96355C67.7973 9.94835 67.777 9.93966 67.7556 9.93937ZM77.3948 23.4456C76.8473 21.9321 75.9237 21.2044 74.5682 21.2044H72.9179C72.8966 21.2047 72.8762 21.2133 72.8612 21.2285C72.8462 21.2438 72.8378 21.2642 72.8378 21.2856V29.013C72.8378 29.0575 72.8022 29.0942 72.7566 29.0942H69.6874C69.6659 29.0942 69.6452 29.0857 69.63 29.0704C69.6148 29.0552 69.6062 29.0345 69.6062 29.013V10.0206C69.6062 9.97609 69.6429 9.93937 69.6874 9.93937H75.1736C78.9817 9.93937 81.2607 12.0059 81.2607 15.0917C81.2607 17.2862 80.1312 19.0711 77.9479 19.8467C77.8744 19.8723 77.8766 19.9747 77.9479 19.9992C79.1519 20.4176 80.0244 21.3268 80.5407 22.7478L82.8353 28.9863C82.84 28.9985 82.8416 29.0118 82.8401 29.0248C82.8385 29.0379 82.8338 29.0504 82.8264 29.0612C82.8189 29.072 82.809 29.0809 82.7974 29.087C82.7857 29.0932 82.7728 29.0964 82.7597 29.0964H79.4134C79.3966 29.0963 79.3802 29.0909 79.3666 29.0809C79.353 29.0709 79.3429 29.0569 79.3378 29.0408L77.3948 23.4456ZM75.1169 18.4379C76.8762 18.4379 77.9735 17.3028 77.9735 15.6147C77.9735 13.9555 76.8195 12.8772 75.0879 12.8772H72.9179C72.8966 12.8775 72.8762 12.8862 72.8612 12.9014C72.8462 12.9166 72.8378 12.9371 72.8378 12.9584V18.3578C72.8378 18.4023 72.8734 18.439 72.9179 18.439L75.1169 18.4379ZM83.8691 27.2692C83.8606 27.2825 83.8559 27.2979 83.8558 27.3137V29.013C83.8558 29.0575 83.8914 29.0953 83.9359 29.0953H98.1131C98.1576 29.0953 98.1933 29.0586 98.1933 29.0141V26.1185C98.1933 26.0972 98.1849 26.0767 98.1699 26.0615C98.1549 26.0463 98.1345 26.0376 98.1131 26.0373H88.7388C88.7243 26.0371 88.71 26.033 88.6976 26.0254C88.6852 26.0178 88.675 26.007 88.6682 25.9942C88.6614 25.9813 88.6582 25.9669 88.6588 25.9524C88.6595 25.9378 88.6641 25.9237 88.672 25.9116L89.5968 24.5239L98.1799 11.7633C98.1887 11.7497 98.1933 11.7338 98.1933 11.7176V10.0206C98.1933 9.99925 98.1849 9.97875 98.1699 9.96355C98.1549 9.94835 98.1345 9.93966 98.1131 9.93937H84.1963C84.1749 9.93966 84.1546 9.94835 84.1396 9.96355C84.1246 9.97875 84.1162 9.99925 84.1162 10.0206V12.9139C84.1162 12.9584 84.1518 12.9963 84.1963 12.9963H93.3102C93.3759 12.9963 93.4137 13.0686 93.377 13.122L92.4233 14.5386L83.8691 27.2692Z" fill="url(#paint0_linear_903_253)"/>
</g>
<defs>
<linearGradient id="paint0_linear_903_253" x1="117.979" y1="16.1789" x2="-2.76109" y2="18.4045" gradientUnits="userSpaceOnUse">
<stop offset="0.159" stop-color="#EEA6FF"/>
<stop offset="0.52" stop-color="#986DC0"/>
</linearGradient>
<clipPath id="clip0_903_253">
<rect width="117.958" height="35.61" fill="white" transform="translate(0.0209351 0.599609)"/>
</clipPath>
</defs>
</svg>
