<svg width="155" height="37" viewBox="0 0 155 37" fill="none" xmlns="http://www.w3.org/2000/svg">
<g id="ca3118c25e31a8a620b552b2d9c391c9.svg">
<path id="Vector" fill-rule="evenodd" clip-rule="evenodd" d="M38.3384 9.33585C36.1155 9.51007 34.0838 10.3551 32.6369 11.7103C31.6202 12.6799 30.8526 13.8806 30.3993 15.2104C29.8156 16.8937 29.7341 18.9594 30.1776 20.7038C30.5794 22.2262 31.402 23.6047 32.5509 24.6813C33.1369 25.2197 33.551 25.5195 34.3406 25.9777C35.2766 26.5343 36.3025 26.9233 37.3723 27.127C39.085 27.4664 41.2039 27.3533 42.7763 26.8442C44.489 26.2876 46.0456 25.1586 47.0411 23.7514C48.376 21.8622 48.9303 19.2049 48.5061 16.7207C48.3251 15.6573 47.9846 14.7636 47.3748 13.75C47.0264 13.1731 46.7334 12.759 46.4246 12.4083C45.661 11.5219 44.7193 10.8062 43.6609 10.3076C42.5005 9.74776 41.243 9.41705 39.9572 9.33359C39.4179 9.30809 38.8777 9.30884 38.3384 9.33585ZM40.0398 10.7228C40.7118 10.811 41.1349 10.9852 41.5387 11.3382C42.1383 11.8619 42.584 12.5463 42.9143 13.4502C43.2424 14.3394 43.4222 15.2557 43.5433 16.6437C43.5931 17.2048 43.5999 19.1246 43.5546 19.6642C43.4867 20.49 43.386 21.2117 43.2605 21.766C43.0229 22.8226 42.5987 23.834 42.1371 24.4471C41.5297 25.2571 40.8 25.7186 39.8724 25.8849C39.4003 25.9504 38.9214 25.9504 38.4493 25.8849C37.734 25.7674 37.0784 25.4147 36.5861 24.8826C36.3269 24.6214 36.1128 24.3191 35.9526 23.9878C35.3757 22.8294 35.0657 21.4221 34.9639 19.49C34.9376 18.7056 34.9459 17.9205 34.9888 17.137C35.0951 15.7659 35.301 14.7025 35.6426 13.7658C35.7852 13.371 36.1246 12.6991 36.3372 12.3857C37.0069 11.4038 37.9051 10.8393 39.0036 10.7148C39.2785 10.6832 39.7593 10.6877 40.0398 10.7228ZM6.01973 10.3314C7.1736 9.75555 8.40214 9.43201 9.82412 9.32454C10.0436 9.3087 11.3592 9.33133 11.5776 9.35282C11.9577 9.39468 12.4724 9.48631 12.8299 9.57568C13.4747 9.73858 14.3763 10.0621 14.8921 10.3178C14.9905 10.3664 15.0788 10.406 15.0878 10.406C15.0991 10.406 15.2722 10.2635 15.4725 10.0893L15.8333 9.77139H16.882L16.8933 9.98632C16.9069 10.1956 16.9091 10.2013 16.9838 10.2771C17.0287 10.3233 17.0634 10.3784 17.0856 10.4388C17.1128 10.5305 17.2078 15.0894 17.1953 15.6154C17.1908 15.8417 17.1818 15.9016 17.1444 15.9627C17.0754 16.0792 16.9578 16.1279 16.7474 16.1279C16.5494 16.1256 16.4363 16.0905 16.3458 16C16.2971 15.9525 16.2677 15.9435 16.1082 15.939L15.9283 15.9322L15.7915 15.5272C15.1105 13.5249 14.2202 12.0667 13.2235 11.3223C12.6964 10.9309 11.8491 10.69 10.9859 10.69C8.90442 10.69 7.43718 11.9864 6.73242 14.4491C6.41906 15.543 6.27992 16.7116 6.27992 18.2422C6.27765 19.9639 6.44621 21.1156 6.87609 22.335C7.09329 22.955 7.34216 23.455 7.59104 23.7717C8.23195 24.5887 9.14916 25.1434 10.1703 25.3317C11.4124 25.5749 12.7382 25.3928 13.7835 24.8374C14.5912 24.4075 15.4091 23.653 16.0833 22.7185C16.2643 22.4663 16.658 21.869 16.6738 21.8249C16.6784 21.8124 16.9182 21.9436 17.2055 22.1145L17.7316 22.4244L17.6874 22.5104L17.6422 22.5975L17.7101 22.688C17.8458 22.8735 17.7779 23.0704 17.3684 23.7095C16.5143 25.0387 15.5075 25.9381 14.1783 26.5569C13.0471 27.0852 11.9758 27.3035 10.5131 27.3035C10.0044 27.3091 9.49611 27.2754 8.99265 27.2028C7.63063 27.0128 6.49259 26.5987 5.23238 25.8419C3.89524 25.0365 2.92802 24.0093 2.23796 22.6631C1.97875 22.1673 1.77029 21.6465 1.61577 21.1088C1.204 19.7151 1.12481 18.0555 1.39744 16.5566C1.71475 14.7815 2.56969 13.1466 3.8466 11.8732C4.47884 11.2404 5.21358 10.7191 6.01973 10.3314ZM87.5433 8.5338C87.679 8.52588 88.9732 8.45461 90.42 8.38108C91.8658 8.30642 93.1169 8.24307 93.2029 8.2408C93.3568 8.23854 93.359 8.23854 93.4518 8.3313C93.5457 8.42067 93.5479 8.4252 93.5479 8.56887C93.5479 8.69783 93.5536 8.71819 93.6011 8.74874C93.6395 8.78147 93.671 8.82145 93.6939 8.86639C93.7357 8.94784 93.7357 9.14467 93.747 16.7512V16.9062C93.7583 24.3713 93.7629 24.8724 93.7979 25.0059C93.8206 25.0851 93.8466 25.1745 93.8602 25.205C93.928 25.377 94.5683 25.653 95.1 25.7435L95.333 25.782L95.3398 25.9833C95.3444 26.1655 95.3512 26.187 95.3975 26.2164C95.5197 26.2967 95.5638 26.5637 95.4767 26.7028C95.4437 26.7496 95.3999 26.7876 95.3489 26.8137C95.2708 26.8533 95.1294 26.8555 91.9393 26.8612C89.5241 26.8657 88.5795 26.8589 88.4901 26.8419C88.4113 26.8308 88.3391 26.7919 88.2865 26.7322L88.2039 26.6474H87.7582V26.3227C87.7582 26.1462 87.765 25.9494 87.7718 25.8849C87.7842 25.7786 87.7899 25.7718 87.8487 25.7718C87.8826 25.7718 88.0727 25.7514 88.2729 25.7265C88.8182 25.6587 89.1406 25.5342 89.3261 25.3272C89.4245 25.2152 89.4619 25.1417 89.5128 24.946C89.5546 24.7819 89.5546 24.6417 89.5546 17.9051C89.5546 11.0836 89.5546 11.0271 89.5105 10.8438C89.4429 10.5802 89.3177 10.3349 89.144 10.1255C89.0048 9.97501 88.8725 9.90827 88.4573 9.79288C88.3269 9.75653 88.1968 9.7192 88.067 9.68089C87.9821 9.66111 87.903 9.62158 87.8363 9.5655C87.7673 9.50215 87.7231 9.48405 87.5614 9.45577C87.4854 9.44045 87.4088 9.42875 87.3317 9.4207C87.2944 9.4207 87.2921 9.38676 87.2921 8.98517V8.5519L87.5433 8.5338ZM96.0401 8.5338C96.1758 8.52588 97.4711 8.45461 98.918 8.38108C100.364 8.30642 101.615 8.24307 101.701 8.2408C101.855 8.23854 101.857 8.23854 101.95 8.3313C102.042 8.42067 102.045 8.42746 102.045 8.56095C102.045 8.68991 102.052 8.70462 102.121 8.77249C102.166 8.81774 102.205 8.88562 102.22 8.94557C102.238 9.02024 102.245 11.0384 102.245 16.7908C102.247 21.2705 102.256 24.627 102.268 24.7548C102.279 24.8736 102.307 25.0376 102.331 25.1168C102.372 25.2378 102.391 25.2706 102.471 25.3272C102.711 25.4958 103.199 25.6779 103.598 25.7435L103.831 25.782L103.838 25.9833C103.845 26.17 103.847 26.1847 103.9 26.2209C103.975 26.2684 104.019 26.3793 104.019 26.5184C104.019 26.6576 103.962 26.7582 103.847 26.8125C103.768 26.8533 103.626 26.8555 100.437 26.8612C98.022 26.8657 97.0774 26.8589 96.9869 26.8419C96.9082 26.8307 96.836 26.7918 96.7833 26.7322L96.7019 26.6474H96.2561V26.4211C96.2561 26.299 96.2629 26.1021 96.272 25.9833L96.2844 25.7718H96.3466C96.3806 25.7718 96.5706 25.7514 96.7709 25.7265C97.3161 25.6587 97.6374 25.5342 97.8241 25.3272C97.9213 25.2152 97.9598 25.1417 98.0107 24.946C98.0526 24.7819 98.0526 24.6417 98.0526 17.9051C98.0526 11.0836 98.0526 11.0271 98.0073 10.8438C97.94 10.5803 97.8152 10.335 97.6419 10.1255C97.5028 9.97501 97.3693 9.90827 96.9541 9.79288C96.8238 9.75653 96.6937 9.7192 96.5638 9.68089C96.4789 9.66111 96.3999 9.62158 96.3331 9.5655C96.2652 9.50215 96.2199 9.48405 96.0582 9.45577C95.9826 9.44049 95.9063 9.42879 95.8297 9.4207C95.7923 9.4207 95.7901 9.38676 95.7901 8.98517V8.5519L96.0401 8.5338ZM131.915 8.27135C131.133 8.41841 130.432 8.95915 130.146 9.63677C130.031 9.9107 129.98 10.2077 129.999 10.5044C130.022 11.0486 130.193 11.4456 130.583 11.8506C130.786 12.0599 130.973 12.2013 131.257 12.354L131.386 12.4253L131.507 12.4909L131.583 12.5328C131.747 12.6233 132.018 12.7172 132.233 12.7568C132.469 12.7997 132.928 12.802 133.158 12.759C134.041 12.5939 134.762 11.9355 134.926 11.1459C134.994 10.7688 134.965 10.3803 134.84 10.018C134.692 9.71131 134.516 9.41896 134.314 9.14467C133.999 8.74874 133.522 8.44217 133.016 8.31094C132.654 8.23774 132.282 8.22436 131.915 8.27135ZM18.7949 10.7013V9.77139H28.2884V9.98632C28.2884 10.1323 28.2884 10.1786 28.3099 10.2092C28.3201 10.2239 28.3348 10.2341 28.3563 10.2499C28.483 10.3427 28.5259 10.5519 28.4524 10.7341C28.3845 10.9004 28.2793 10.9377 27.656 11.0214C26.9365 11.1153 26.5338 11.2578 26.2827 11.5045C26.0519 11.7318 25.9524 11.9864 25.915 12.4411C25.8856 12.776 25.8856 24.205 25.915 24.5444C25.9263 24.6801 25.9569 24.8657 25.9829 24.955C26.0293 25.1111 26.0395 25.1213 26.1673 25.2141C26.2431 25.2661 26.363 25.334 26.4354 25.3668C26.7092 25.4856 27.4309 25.6338 28.0169 25.6903L28.2884 25.7152V26.1236L28.363 26.1892C28.4592 26.2707 28.4965 26.3759 28.483 26.5309C28.4694 26.6711 28.4185 26.7503 28.2963 26.8114C28.2103 26.8555 28.1662 26.8555 23.8516 26.8555C19.5834 26.8555 19.4907 26.8555 19.4058 26.8137C19.3572 26.7894 19.3156 26.7532 19.2848 26.7085C19.2486 26.6474 19.2463 26.6474 19.0201 26.6474H18.7938L18.7983 26.1813L18.8051 25.7175L18.994 25.7016L19.3617 25.6756L19.5042 25.6643C20.2565 25.6078 20.5043 25.5636 20.7577 25.4415C20.9963 25.3249 21.1411 25.1982 21.2441 25.0082C21.2581 24.9812 21.2732 24.9548 21.2893 24.929C21.3912 24.7491 21.3912 24.5116 21.39 19.5906V18.3168C21.39 12.2183 21.39 12.0723 21.347 11.9117C21.2565 11.5655 21.1185 11.3913 20.8549 11.294C20.5447 11.1876 20.2271 11.1036 19.9047 11.0429C19.4816 10.9513 19.3888 10.9162 19.3164 10.8302C19.278 10.7872 19.2293 10.7714 19.0314 10.7386L18.7938 10.7013H18.7949ZM52.7143 10.2352L52.7211 10.699L52.9587 10.7443C53.16 10.7872 53.2042 10.802 53.2619 10.8608C53.341 10.94 53.4463 10.975 53.8083 11.052C54.4304 11.1832 54.8264 11.3189 54.9621 11.4524C55.0176 11.5095 55.0634 11.5752 55.0979 11.647L55.116 11.6821C55.1203 11.6907 55.1244 11.6994 55.1284 11.7081C55.2167 11.8891 55.2167 12.1131 55.2167 17.2851V19.3678C55.2167 24.4301 55.2167 24.6699 55.1194 24.8589C55.1146 24.8683 55.1097 24.8778 55.1047 24.8871L55.0786 24.9358C54.9497 25.1915 54.6261 25.4109 54.2302 25.5093C54.056 25.5523 53.5062 25.6315 53.0085 25.6847C52.918 25.6935 52.8279 25.7048 52.7381 25.7186C52.7155 25.7254 52.7098 25.8374 52.7098 26.1881V26.6474H53.1555L53.2381 26.7322C53.3003 26.7967 53.349 26.8227 53.4372 26.8419C53.5877 26.8725 61.9057 26.8759 62.8243 26.8442C65.0189 26.7673 66.4579 26.4879 67.64 25.903C68.6423 25.4053 69.277 24.7016 69.5767 23.7559C69.7238 23.2966 69.7543 23.0534 69.7566 22.4335C69.7566 21.9504 69.7498 21.8577 69.7046 21.6416C69.6141 21.1925 69.5191 20.9538 69.2476 20.4855C69.0916 20.1954 68.9058 19.9224 68.6932 19.671C68.1593 19.0386 67.3934 18.5465 66.3855 18.1879C65.9107 18.0274 65.4268 17.8951 64.9364 17.7919C64.7588 17.7557 64.623 17.7195 64.6275 17.706C64.6456 17.6551 64.8357 17.577 65.3312 17.4186C65.6174 17.3281 65.976 17.2037 66.1253 17.1449C67.7351 16.5114 68.6163 15.5996 68.8018 14.379C68.8516 14.0566 68.8471 13.5339 68.7905 13.216C68.6978 12.6821 68.6027 12.4581 68.1751 11.7646C67.5473 10.7522 66.2893 10.1436 64.2995 9.8913L64.2361 9.88338H64.235C64.1309 9.8698 64.0404 9.85849 63.951 9.84944C63.3809 9.78609 62.8028 9.78496 58.5776 9.77817H57.9826L52.7098 9.76912L52.7143 10.2352ZM61.8039 11.1176C62.4261 11.2115 62.8424 11.3732 63.1128 11.6255C63.6332 12.1085 63.8979 12.7703 63.9273 13.6584C63.9646 14.7579 63.6761 15.5849 63.0347 16.2172C62.7067 16.5419 62.3503 16.7489 61.8379 16.913C61.3786 17.06 60.9521 17.1189 60.2247 17.1415L59.7462 17.1539L59.7303 16.9922C59.7236 16.9017 59.719 15.6324 59.7236 14.1708C59.7303 11.9705 59.7371 11.4977 59.7609 11.4343C59.857 11.1979 60.012 11.113 60.4 11.0836C60.8682 11.06 61.3375 11.0713 61.8039 11.1176ZM61.9883 18.568C62.6512 18.6698 63.2259 18.8655 63.5562 19.1019C63.7474 19.2399 64.0472 19.551 64.1909 19.766C64.597 20.3655 64.7769 21.0307 64.7769 21.9391C64.7769 22.3554 64.7497 22.6484 64.6762 23.0047C64.399 24.36 63.4748 25.2786 62.1591 25.5025C61.8661 25.5523 61.2428 25.5512 60.9611 25.5003C60.5392 25.4256 60.1127 25.2424 59.8899 25.041L59.8672 25.0206L59.8333 24.9901C59.7292 24.8826 59.7292 24.6733 59.7303 22.2921V21.8316C59.7303 19.5601 59.7371 18.956 59.7586 18.8813C59.7814 18.8166 59.817 18.7571 59.8632 18.7063C59.9095 18.6556 59.9655 18.6147 60.0279 18.5861C60.1783 18.5205 60.3684 18.5069 61.0505 18.5159C61.5562 18.5205 61.744 18.5307 61.9883 18.568ZM120.611 14.8926V11.2816H124.537V11.7217L124.623 11.802C124.682 11.8531 124.721 11.9231 124.734 11.9999C124.75 12.0791 124.759 12.5509 124.759 13.4706C124.759 14.2149 124.766 14.8394 124.773 14.8575C124.785 14.8892 124.944 14.8926 126.347 14.8926H127.909V15.1165C127.909 15.3394 127.909 15.3428 127.971 15.3767C128.084 15.4401 128.119 15.5498 128.119 15.8451C128.119 16.1471 128.084 16.2501 127.95 16.327C127.878 16.3688 127.825 16.3711 126.534 16.3835C125.493 16.3926 125.174 16.4016 125.114 16.4231C124.995 16.4651 124.896 16.5514 124.838 16.6641L124.792 16.7648L124.785 20.0363C124.779 23.5172 124.781 23.6971 124.884 24.1914C124.994 24.7435 125.108 24.9245 125.429 25.0806C125.817 25.2661 126.19 25.2989 127.155 25.222C127.442 25.2005 127.927 25.1428 128.013 25.1213C128.064 25.11 128.063 25.1134 128.063 25.36C128.063 25.5942 128.066 25.6089 128.113 25.6292C128.153 25.6538 128.187 25.6866 128.213 25.7254C128.255 25.7876 128.264 25.8306 128.264 25.963C128.264 26.2232 128.181 26.3566 127.953 26.472C127.565 26.6355 127.168 26.7767 126.764 26.8951C126.135 27.0806 125.655 27.1485 124.868 27.1666C124.043 27.1836 123.494 27.1214 122.965 26.9494C122.568 26.799 122.188 26.6067 121.831 26.3759C121.283 26.0082 120.844 25.3317 120.678 24.6032L120.663 24.5376L120.662 24.5353C120.654 24.5026 120.647 24.4698 120.64 24.4369C120.581 24.1518 120.58 23.8543 120.571 20.9244L120.569 20.2841C120.562 18.163 120.546 16.4209 120.538 16.4096C120.291 16.3901 120.043 16.3807 119.795 16.3813C119.327 16.3722 119.05 16.3587 119.011 16.3439C118.968 16.3208 118.929 16.2901 118.897 16.2534C118.878 16.2308 118.866 16.2161 118.851 16.2059C118.817 16.1844 118.769 16.1844 118.616 16.1844H118.392V14.8926H120.611ZM111.007 14.5204C109.193 14.6901 107.57 15.5046 106.547 16.758C105.545 17.9821 105.045 19.5413 105.148 21.1201C105.265 23.0636 105.986 24.5783 107.275 25.5919C107.561 25.8182 107.726 25.9268 108.189 26.1983C108.779 26.5467 109.271 26.7594 109.879 26.9324C111.063 27.2673 112.681 27.3329 113.865 27.0942C114.788 26.9053 115.883 26.3928 116.662 25.7808C117.065 25.4641 117.758 24.7186 117.92 24.4256C118.002 24.2774 118.002 24.1405 117.917 24.0342L117.855 23.9527L117.904 23.8735C117.929 23.8306 117.942 23.7887 117.933 23.7797C117.894 23.7468 117.039 23.1462 117.03 23.1462C116.988 23.1917 116.95 23.2405 116.915 23.2921C116.296 24.1541 115.412 24.8611 114.615 25.1258C114.161 25.2659 113.687 25.326 113.212 25.3034C112.314 25.2593 111.649 25.0648 111.095 24.6813C110.863 24.5096 110.654 24.3097 110.473 24.0862C110.061 23.5342 109.719 22.2389 109.71 21.197C109.708 20.9323 109.712 20.8927 109.756 20.8124C109.814 20.7039 109.91 20.6208 110.026 20.5793C110.09 20.5579 110.924 20.5488 113.845 20.5398H113.883C117.532 20.5284 117.582 20.5284 117.658 20.4855C117.825 20.3893 117.862 20.1574 117.818 19.5126C117.789 18.9718 117.684 18.4379 117.506 17.9266C117.398 17.6245 117.279 17.3824 117.026 16.9593C116.829 16.6121 116.584 16.295 116.296 16.0181C115.916 15.6345 115.469 15.3243 114.976 15.103C114.336 14.7987 113.78 14.6505 112.935 14.552C112.293 14.5078 111.649 14.4972 111.005 14.5204H111.007ZM112.364 15.7659C112.49 15.8055 112.528 15.8326 112.634 15.948C112.755 16.0792 112.912 16.3462 113 16.5781C113.184 17.0487 113.288 17.7806 113.326 18.8598L113.341 19.2931L112.645 19.2954C112.261 19.2976 111.474 19.3033 110.895 19.3123C110.524 19.319 110.152 19.3205 109.781 19.3169L109.719 19.3101V19.1087C109.719 18.896 109.766 18.4435 109.821 18.1223C110.049 16.7908 110.615 15.9695 111.456 15.7466C111.678 15.6856 112.146 15.6969 112.363 15.767L112.364 15.7659ZM145.047 15.2783C145.59 14.9152 146.364 14.6493 147.174 14.5543C147.628 14.5148 148.084 14.5148 148.538 14.5543C149.685 14.6855 150.492 15.1245 151.073 15.9322C151.218 16.1335 151.544 16.7048 151.641 16.9265C151.832 17.3666 151.95 17.8745 151.994 18.4605C152.008 18.6381 152.017 19.9651 152.017 21.7773C152.017 23.567 152.025 24.8543 152.038 24.9403C152.049 25.0195 152.074 25.1349 152.094 25.1982C152.125 25.2967 152.144 25.3227 152.245 25.3883C152.465 25.5308 152.922 25.6824 153.32 25.7435L153.546 25.7774V26.1609L153.633 26.2469C153.7 26.3125 153.724 26.3555 153.735 26.437C153.769 26.6519 153.668 26.799 153.458 26.8419C153.296 26.8759 147.162 26.8748 146.998 26.8419C146.922 26.8287 146.851 26.7901 146.799 26.7322L146.717 26.6474H146.264L146.278 26.2175C146.287 25.9822 146.296 25.7842 146.298 25.7831C146.303 25.7786 146.476 25.7559 146.686 25.7299C146.894 25.7039 147.13 25.6643 147.208 25.6394C147.329 25.6037 147.44 25.5385 147.53 25.4497C147.62 25.3609 147.686 25.2512 147.724 25.1304C147.799 24.8758 147.804 24.7005 147.795 21.5036L147.794 21.1789C147.788 18.5669 147.787 18.2478 147.714 17.9458L147.681 17.8146L147.668 17.7716C147.588 17.5048 147.463 17.2538 147.298 17.0295C147.102 16.7885 146.786 16.6969 146.206 16.7161C145.818 16.7274 145.585 16.775 145.235 16.9152C144.561 17.1867 143.867 17.784 143.671 18.2614L143.62 18.3836L143.614 21.5251C143.607 24.7774 143.609 24.929 143.699 25.2096C143.738 25.3363 143.754 25.3577 143.849 25.4166C144.062 25.5523 144.465 25.6926 144.803 25.7492L144.962 25.7763V25.9686C144.962 26.1496 144.964 26.1632 145.02 26.1983C145.107 26.2537 145.169 26.4132 145.158 26.5422C145.155 26.6001 145.137 26.6562 145.104 26.7039C145.071 26.7516 145.025 26.7889 144.971 26.8114C144.887 26.8544 144.834 26.8555 141.703 26.8612H141.679C139.357 26.8657 138.442 26.8589 138.352 26.8419C138.273 26.8308 138.201 26.7919 138.149 26.7322L138.066 26.6474H137.62V26.4211C137.62 26.299 137.627 26.1044 137.634 25.9912L137.65 25.7808L138.04 25.7322C138.668 25.653 138.931 25.5682 139.135 25.3804C139.261 25.2611 139.349 25.1072 139.388 24.9381C139.426 24.8046 139.428 24.6111 139.428 21.0658C139.428 17.603 139.426 17.3247 139.391 17.1969C139.321 16.9677 139.209 16.7536 139.06 16.5657C138.902 16.3734 138.805 16.3168 138.408 16.2037C138.126 16.1245 138.057 16.0939 137.978 16.0091C137.929 15.9571 137.886 15.9412 137.711 15.9129C137.635 15.8991 137.559 15.8874 137.482 15.8779C137.466 15.7333 137.461 15.5877 137.465 15.4423V15.0091L137.638 14.9955C137.731 14.9887 139.024 14.9163 140.511 14.836L143.214 14.6912L143.312 14.7851L143.41 14.8801V15.0385C143.41 15.1776 143.417 15.2014 143.456 15.2229C143.496 15.2568 143.528 15.2993 143.549 15.3473C143.592 15.4401 143.598 15.5034 143.609 15.939L143.62 16.4299L144.057 16.0566C144.548 15.6392 144.777 15.4593 145.047 15.2783ZM73.7816 14.8383C72.3845 14.9129 71.1356 14.9831 71.0055 14.991L70.7657 15.0068V15.8733L70.8833 15.8892C71.1628 15.922 71.2318 15.9457 71.3064 16.0249C71.3709 16.0951 71.4082 16.1098 71.708 16.1867C71.8924 16.2353 72.096 16.2987 72.1628 16.3338C72.3777 16.4401 72.6289 16.784 72.7103 17.0838C72.7442 17.2127 72.7488 17.4933 72.7623 20.4097C72.7623 20.5884 72.7624 20.757 72.7646 20.9187C72.7748 23.3113 72.7759 23.6812 72.8506 24.0364C72.863 24.1021 72.88 24.1665 72.8981 24.2423L72.9196 24.3272C73.1006 25.058 73.3947 25.5897 73.88 26.067C74.1402 26.3216 74.19 26.3589 74.6696 26.6496C75.0554 26.8838 75.4773 27.0478 75.8982 27.127C76.5317 27.2492 77.5419 27.2379 78.1957 27.1044C78.9016 26.9619 79.8474 26.4924 80.4277 25.9992L80.6766 25.7865L80.7874 25.6903C80.8757 25.6157 80.9752 25.5399 81.0137 25.5206L81.0804 25.4844V26.5772L81.1732 26.6564C81.2569 26.7288 81.2773 26.7356 81.4085 26.7356C81.5352 26.7356 81.5556 26.7413 81.594 26.7899C81.6517 26.8623 81.7343 26.903 81.8565 26.9211C81.947 26.9324 86.5873 26.6666 86.8249 26.6338C87.0794 26.601 87.2016 26.4856 87.2016 26.2797C87.2016 26.1508 87.1643 26.058 87.0817 25.9946C87.0308 25.955 87.0263 25.9381 87.0195 25.7367L87.0138 25.5195L86.7808 25.5048C86.119 25.4596 85.7887 25.3577 85.5093 25.1145C85.3894 25.0093 85.3566 24.9528 85.3011 24.7718C85.2638 24.653 85.2615 24.334 85.2502 20.0477C85.2389 15.7828 85.2366 15.4446 85.2016 15.3677C85.1778 15.3177 85.1453 15.2725 85.1054 15.2342C85.0602 15.1901 85.0489 15.1573 85.0375 15.0181C85.024 14.862 85.0172 14.8473 84.9369 14.7704L84.8554 14.6889L82.2954 14.8247C80.8892 14.8993 79.5713 14.9717 79.3677 14.9853L78.9944 15.0079V15.4446C78.9944 15.8428 78.9967 15.8779 79.0351 15.8779C79.0544 15.8779 79.1573 15.8869 79.2591 15.9005C79.4277 15.9197 79.4492 15.9265 79.5193 15.9967C79.6098 16.0905 79.6652 16.1075 80.0397 16.1607C80.4616 16.2195 80.6008 16.2693 80.7207 16.3982C80.827 16.5148 80.9492 16.7421 81.0069 16.9401C81.0442 17.0623 81.0465 17.301 81.0533 20.4379L81.0578 23.8034L80.9865 23.9064C80.8847 24.0557 80.5849 24.3532 80.3768 24.515C79.784 24.9754 79.2546 25.1632 78.5623 25.1677C78.2829 25.1677 78.2025 25.1609 78.0543 25.1191C77.8082 25.0533 77.5816 24.9291 77.3937 24.7571C77.2954 24.6743 77.2215 24.5664 77.1799 24.4448C77.0962 24.229 77.0378 24.0043 77.0057 23.7751C76.9717 23.5715 76.9672 23.136 76.9559 19.4786C76.9434 15.5871 76.9412 15.4027 76.9027 15.327C76.8793 15.282 76.847 15.2424 76.8077 15.2104C76.7613 15.1799 76.7545 15.1595 76.7545 15.026C76.7545 14.8948 76.7455 14.8677 76.6878 14.7885L76.621 14.6957L76.4706 14.698C76.388 14.7002 75.1798 14.7636 73.7816 14.8383ZM128.847 14.991C128.982 14.9831 130.245 14.9118 131.646 14.8383C133.05 14.7636 134.266 14.7002 134.352 14.698C134.505 14.6957 134.507 14.6957 134.601 14.7885C134.694 14.8778 134.696 14.8824 134.696 15.0283C134.696 15.1618 134.701 15.1799 134.751 15.2127C134.795 15.2502 134.831 15.2964 134.856 15.3484L134.906 15.4503L134.918 20.1676V20.1744C134.929 24.877 134.929 24.8849 134.975 25.0319C135.003 25.1134 135.038 25.2016 135.06 25.2333C135.178 25.4132 135.807 25.6643 136.349 25.7526L136.515 25.7786V25.9686C136.515 26.1496 136.517 26.1632 136.571 26.196C136.668 26.2594 136.714 26.36 136.714 26.5048C136.714 26.6643 136.666 26.7537 136.546 26.8137C136.462 26.8533 136.367 26.8555 133.033 26.8555C129.73 26.8555 129.603 26.8533 129.522 26.8137C129.474 26.7902 129.432 26.7547 129.402 26.7107L129.363 26.6474H128.885V26.3781C128.885 26.2288 128.892 26.032 128.898 25.9403C128.913 25.7763 128.915 25.7718 128.971 25.7718C129.116 25.7718 129.754 25.6802 129.894 25.6383C130.247 25.5331 130.495 25.3487 130.603 25.1134L130.637 25.0376C130.73 24.8159 130.728 24.5534 130.721 20.9425C130.715 17.4356 130.713 17.2614 130.674 17.1471C130.601 16.9353 130.485 16.7408 130.333 16.5759C130.178 16.4141 130.058 16.3575 129.594 16.2286C129.301 16.1471 129.233 16.1166 129.137 16.0272C129.079 15.9718 129.026 15.9548 128.832 15.9152L128.596 15.8711V15.0068L128.847 14.991Z" fill="url(#paint0_radial_903_243)"/>
</g>
<defs>
<radialGradient id="paint0_radial_903_243" cx="0" cy="0" r="1" gradientUnits="userSpaceOnUse" gradientTransform="translate(1.14061 27.1486) rotate(-7.177) scale(153.925 1230.27)">
<stop stop-color="#C09898"/>
<stop offset="1" stop-color="#E8C0B0"/>
</radialGradient>
</defs>
</svg>
