<svg width="94" height="21" viewBox="0 0 94 21" fill="none" xmlns="http://www.w3.org/2000/svg">
<g id="079936ffc7d5fa349daedde691ebde3d.svg" clip-path="url(#clip0_903_85)">
<path id="Vector" d="M93.9933 9.77101V8.11282H91.9404V5.53221L91.8712 5.55369L89.9438 6.14581L89.9056 6.15722V8.11215H86.8624V7.02459C86.8624 6.51706 86.9759 6.1297 87.1981 5.87056C87.419 5.61546 87.7352 5.48522 88.1386 5.48522C88.4287 5.48522 88.7287 5.55369 89.0308 5.68863L89.106 5.7222V3.97539L89.0704 3.96196C88.7892 3.86126 88.4058 3.80957 87.9305 3.80957C87.3317 3.80957 86.7879 3.94048 86.3133 4.19894C85.8453 4.45203 85.46 4.83447 85.2036 5.3006C84.9431 5.77053 84.8108 6.31431 84.8108 6.91583V8.11215H83.3816V9.77101H84.8108V16.7609H86.8624V9.77034H89.9056V14.2126C89.9056 16.0413 90.7656 16.9684 92.4607 16.9684C92.7393 16.9684 93.0327 16.9355 93.3321 16.8717C93.6368 16.8059 93.8443 16.7401 93.9665 16.6696L93.9933 16.6535V14.9799L93.9101 15.0349C93.7986 15.1095 93.6597 15.1705 93.4972 15.2162C93.3657 15.2568 93.2293 15.2798 93.0917 15.2847C92.695 15.2847 92.4009 15.1773 92.219 14.9658C92.0344 14.7516 91.9411 14.3777 91.9411 13.8541V9.77101H93.9933ZM78.7997 15.2853C78.0552 15.2853 77.4678 15.0369 77.0543 14.5489C76.638 14.0588 76.4272 13.3586 76.4272 12.4698C76.4272 11.5527 76.638 10.8351 77.0543 10.3356C77.4685 9.83949 78.0498 9.58774 78.7829 9.58774C79.4945 9.58774 80.0605 9.82874 80.4666 10.3034C80.8741 10.78 81.0809 11.4916 81.0809 12.4201C81.0809 13.3593 80.8862 14.0803 80.5029 14.563C80.1216 15.0416 79.5489 15.2853 78.7997 15.2853ZM78.891 7.90403C77.4705 7.90403 76.342 8.3216 75.537 9.146C74.7328 9.9704 74.3253 11.111 74.3253 12.5362C74.3253 13.8903 74.7234 14.9799 75.5082 15.7734C76.293 16.5669 77.3617 16.9684 78.6829 16.9684C80.0605 16.9684 81.1662 16.5454 81.9704 15.7096C82.7747 14.8752 83.1822 13.7453 83.1822 12.353C83.1822 10.9774 82.8002 9.88044 82.0456 9.09229C81.291 8.30348 80.2297 7.90403 78.891 7.90403ZM71.017 7.90403C70.0509 7.90403 69.2513 8.15243 68.6404 8.64116C68.0262 9.13324 67.7147 9.77907 67.7147 10.5598C67.7147 10.966 67.7818 11.3265 67.914 11.6326C68.0476 11.9394 68.2537 12.21 68.5276 12.4362C68.7989 12.6611 69.2185 12.8967 69.7743 13.1364C70.2416 13.3297 70.59 13.4929 70.8115 13.6218C71.0284 13.748 71.1814 13.8742 71.268 13.9977C71.3526 14.1186 71.3956 14.2844 71.3956 14.4878C71.3956 15.0692 70.9619 15.3518 70.0697 15.3518C69.7387 15.3518 69.3614 15.2827 68.9479 15.1457C68.5373 15.011 68.1499 14.8141 67.7993 14.5616L67.7147 14.4999V16.483L67.7455 16.4971C68.0362 16.6314 68.4021 16.7455 68.8331 16.8348C69.2641 16.9241 69.6555 16.969 69.9952 16.969C71.0438 16.969 71.8883 16.72 72.5046 16.2279C73.1249 15.7324 73.4391 15.0719 73.4391 14.2636C73.4391 13.6802 73.2699 13.1807 72.9363 12.7772C72.6053 12.3778 72.03 12.0106 71.2284 11.6857C70.59 11.4285 70.1805 11.215 70.0113 11.0512C69.8488 10.8928 69.7663 10.6686 69.7663 10.3846C69.7663 10.1335 69.8683 9.93146 70.0778 9.769C70.2886 9.60452 70.5826 9.5206 70.9505 9.5206C71.2929 9.5206 71.6426 9.57565 71.9904 9.68172C72.3381 9.78779 72.6429 9.93012 72.898 10.1047L72.9819 10.1617V8.27998L72.9497 8.26655C72.7148 8.16518 72.4046 8.07858 72.028 8.00809C71.6948 7.94263 71.3564 7.90758 71.017 7.90336V7.90403ZM62.3655 15.2853C61.621 15.2853 61.0336 15.0369 60.62 14.5489C60.2038 14.0588 59.993 13.3593 59.993 12.4698C59.993 11.5527 60.2038 10.8351 60.6207 10.3356C61.0342 9.83949 61.6156 9.58774 62.3494 9.58774C63.061 9.58774 63.6269 9.82874 64.0324 10.3034C64.4406 10.78 64.6473 11.4916 64.6473 12.4201C64.6473 13.3593 64.4527 14.0803 64.0687 14.563C63.688 15.0416 63.1154 15.2853 62.3655 15.2853ZM62.4575 7.90403C61.0362 7.90403 59.9077 8.3216 59.1035 9.146C58.2992 9.9704 57.891 11.111 57.891 12.5362C57.891 13.891 58.2898 14.9799 59.0746 15.7734C59.8601 16.5669 60.9275 16.9684 62.2493 16.9684C63.6262 16.9684 64.7333 16.5454 65.5369 15.7096C66.3411 14.8752 66.7486 13.7453 66.7486 12.353C66.7486 10.9774 66.366 9.88044 65.6114 9.09229C64.8568 8.30348 63.7954 7.90403 62.4575 7.90403ZM54.7767 9.60922V8.11215H52.75V16.7596H54.7767V12.3355C54.7767 11.5836 54.9466 10.966 55.2822 10.4987C55.6132 10.0375 56.0543 9.80391 56.5927 9.80391C56.7753 9.80391 56.98 9.83412 57.2023 9.89386C57.4218 9.95294 57.5809 10.0181 57.6749 10.0859L57.7601 10.1476V8.0967L57.7266 8.08261C57.5386 8.00205 57.2714 7.96177 56.9337 7.96177C56.4242 7.96177 55.9683 8.12557 55.5776 8.44915C55.2352 8.7338 54.9875 9.12317 54.7989 9.60922H54.7767ZM49.1207 7.90336C48.1903 7.90336 47.3618 8.10342 46.6556 8.49816C45.959 8.88321 45.3931 9.46734 45.0303 10.1758C44.6597 10.8915 44.4718 11.7279 44.4718 12.6611C44.4718 13.4781 44.6544 14.228 45.0149 14.8886C45.3617 15.537 45.8883 16.0715 46.5314 16.428C47.1759 16.7864 47.9211 16.9684 48.7468 16.9684C49.7102 16.9684 50.5326 16.775 51.1918 16.3944L51.2187 16.3789V14.5153L51.1334 14.5778C50.8302 14.7982 50.4961 14.9726 50.1418 15.0954C49.7833 15.2209 49.4571 15.2847 49.1704 15.2847C48.3756 15.2847 47.7371 15.0349 47.2732 14.5422C46.8093 14.0494 46.5737 13.3573 46.5737 12.4859C46.5737 11.6091 46.8194 10.8989 47.3034 10.3745C47.7855 9.85224 48.4246 9.58706 49.204 9.58706C49.8699 9.58706 50.5198 9.81398 51.1334 10.2611L51.2187 10.3228V8.36054L51.1911 8.3451C50.9602 8.21486 50.6447 8.10812 50.2533 8.02689C49.8809 7.94766 49.5014 7.90671 49.1207 7.9047V7.90336ZM43.0761 8.11147H41.0493V16.7596H43.0767V8.11215L43.0761 8.11147ZM42.0832 4.4272C41.7502 4.4272 41.4588 4.54132 41.2198 4.76756C41.103 4.87525 41.0103 5.00651 40.9479 5.15267C40.8855 5.29884 40.8549 5.45657 40.858 5.61546C40.858 5.9471 40.9788 6.22637 41.2165 6.44791C41.4521 6.66744 41.7441 6.77888 42.0838 6.77888C42.4228 6.77888 42.7155 6.66744 42.9545 6.44791C43.0714 6.34347 43.1643 6.21501 43.2268 6.07133C43.2894 5.92764 43.3202 5.77214 43.3171 5.61546C43.3171 5.29053 43.1989 5.00857 42.9646 4.77629C42.731 4.54468 42.4343 4.4272 42.0832 4.4272ZM37.0267 7.47371V16.7596H39.0944V4.69304H36.2325L32.5939 13.656L29.0626 4.69304H26.0833V16.7603H28.0268V7.47304H28.0939L31.8225 16.7603H33.2894L36.9595 7.47438L37.0267 7.47371Z" fill="url(#paint0_linear_903_85)"/>
<path id="Vector_2" d="M9.54094 10.23H0.00666809V0.660156H9.54094V10.23Z" fill="url(#paint1_linear_903_85)"/>
<path id="Vector_3" d="M20.0681 10.23H10.5338V0.660156H20.0681V10.23Z" fill="url(#paint2_linear_903_85)"/>
<path id="Vector_4" d="M9.54094 20.8003H0.00666809V11.2305H9.54094V20.8003Z" fill="url(#paint3_linear_903_85)"/>
<path id="Vector_5" d="M20.0681 20.8003H10.5338V11.2305H20.0681V20.8003Z" fill="url(#paint4_linear_903_85)"/>
</g>
<defs>
<linearGradient id="paint0_linear_903_85" x1="0.00666813" y1="7.70935" x2="93.9933" y2="20.8003" gradientUnits="userSpaceOnUse">
<stop offset="0.179" stop-color="#FFEEFF"/>
<stop offset="1" stop-color="#F7E6FF"/>
</linearGradient>
<linearGradient id="paint1_linear_903_85" x1="0.00666796" y1="7.70916" x2="93.9933" y2="20.8002" gradientUnits="userSpaceOnUse">
<stop offset="0.179" stop-color="#FFEEFF"/>
<stop offset="1" stop-color="#F7E6FF"/>
</linearGradient>
<linearGradient id="paint2_linear_903_85" x1="0.00666617" y1="7.70916" x2="93.9933" y2="20.8002" gradientUnits="userSpaceOnUse">
<stop offset="0.179" stop-color="#FFEEFF"/>
<stop offset="1" stop-color="#F7E6FF"/>
</linearGradient>
<linearGradient id="paint3_linear_903_85" x1="0.00666782" y1="7.70933" x2="93.9933" y2="20.8003" gradientUnits="userSpaceOnUse">
<stop offset="0.179" stop-color="#FFEEFF"/>
<stop offset="1" stop-color="#F7E6FF"/>
</linearGradient>
<linearGradient id="paint4_linear_903_85" x1="0.0066663" y1="7.70933" x2="93.9933" y2="20.8003" gradientUnits="userSpaceOnUse">
<stop offset="0.179" stop-color="#FFEEFF"/>
<stop offset="1" stop-color="#F7E6FF"/>
</linearGradient>
<clipPath id="clip0_903_85">
<rect width="93.9867" height="20.14" fill="white" transform="translate(0.00666809 0.660156)"/>
</clipPath>
</defs>
</svg>
