<svg width="94" height="14" viewBox="0 0 94 14" fill="none" xmlns="http://www.w3.org/2000/svg">
<g id="6d8a407609583444b809d69ce0e04120.svg" clip-path="url(#clip0_903_93)">
<path id="Vector" d="M40.5807 8.65389H46.7906L43.5092 3.12844L37.4865 13.0989H34.7332L42.0671 1.14146C42.2211 0.901768 42.4329 0.704628 42.683 0.568144C42.9331 0.43166 43.2135 0.360209 43.4984 0.360352C44.0708 0.360352 44.599 0.647562 44.9076 1.11864L52.2631 13.0989H49.5218L48.2334 10.871H41.9456L40.5807 8.65389ZM69.0662 10.8704V0.48651H66.7323V11.9045C66.7323 12.2145 66.8531 12.5245 67.0732 12.7433C67.1811 12.8603 67.3124 12.9533 67.4585 13.0166C67.6045 13.0798 67.7622 13.1117 67.9214 13.1104H78.5247L79.9017 10.8825H69.0662M30.5713 9.02096C32.8394 9.02096 34.6566 7.10309 34.6566 4.74836C34.6566 2.39297 32.8394 0.487181 30.5713 0.487181H20.3968V13.1104H22.7206V2.71508H30.4176C31.496 2.71508 32.3771 3.62234 32.3771 4.74836C32.3771 5.87372 31.496 6.79306 30.4176 6.79306H23.8547L30.8028 13.0989H34.1829L29.5144 9.00955H30.5713M6.08256 13.0989H13.1185C16.4658 13.0989 19.1526 10.2845 19.1526 6.79306C19.1526 3.3009 16.455 0.475102 13.1185 0.475102H6.08256C2.73535 0.475102 0.0263062 3.3009 0.0263062 6.79306C0.0263062 10.2845 2.73535 13.0989 6.08256 13.0989ZM12.9535 10.8818H6.23623C4.07812 10.8818 2.32735 9.04377 2.32735 6.79306C2.32735 4.53027 4.07879 2.70367 6.2369 2.70367H12.9535C15.123 2.70367 16.8731 4.53027 16.8731 6.79306C16.8731 9.05585 15.123 10.8818 12.9535 10.8818ZM57.1302 13.0989H64.3098L65.664 10.8818H57.2845C55.115 10.8818 53.3643 9.04377 53.3643 6.79306C53.3643 4.53027 55.1157 2.70367 57.2845 2.70367H64.1004L65.4768 0.475773H57.1195C53.7716 0.475773 51.0632 3.3009 51.0632 6.79306C51.074 10.2845 53.7944 13.0989 57.1302 13.0989ZM85.5828 10.8818C83.7884 10.8818 82.2799 9.6296 81.8176 7.90701H91.7605L93.1261 5.67912H81.8176C82.2799 3.95585 83.7992 2.70367 85.5828 2.70367H92.4101L93.7757 0.475773H85.4292C82.0927 0.475773 79.3837 3.3009 79.3837 6.79306C79.3837 10.2731 82.0927 13.0989 85.4292 13.0989H92.6081L93.9737 10.8818H85.5828Z" fill="url(#paint0_linear_903_93)"/>
</g>
<defs>
<linearGradient id="paint0_linear_903_93" x1="0.0263062" y1="0.360352" x2="93.9737" y2="11.0972" gradientUnits="userSpaceOnUse">
<stop stop-color="#FBF8FF"/>
<stop offset="0.522" stop-color="#F4F2FF"/>
<stop offset="1" stop-color="#D7D6FE"/>
</linearGradient>
<clipPath id="clip0_903_93">
<rect width="93.9474" height="12.75" fill="white" transform="translate(0.0263062 0.360352)"/>
</clipPath>
</defs>
</svg>
