<svg width="94" height="19" viewBox="0 0 94 19" fill="none" xmlns="http://www.w3.org/2000/svg">
<g id="54133dfd8949b5262ec96df60ca480be.svg" clip-path="url(#clip0_903_114)">
<path id="Vector" d="M0.00860596 12.4868L1.67523 11.4749C2.2172 12.5714 3.2178 13.2036 4.38444 13.2036C5.38505 13.2036 6.13503 12.8245 6.13503 12.0651C6.13503 11.307 5.42703 10.9686 4.13445 10.5896C2.30116 10.1259 0.425263 9.66228 0.425263 7.55456C0.425263 5.65736 1.88388 4.56152 4.00914 4.56152C6.0517 4.56152 7.26094 5.57278 7.96895 6.62726L6.427 7.80706C5.88504 6.96435 4.92641 6.37414 3.96779 6.37414C3.05114 6.37414 2.50917 6.79581 2.50917 7.38602C2.50917 8.18675 3.25916 8.48248 4.55173 8.86155C6.30169 9.3252 8.17759 9.91541 8.17759 11.9811C8.17759 13.5832 6.96834 15.0588 4.17643 15.0588C2.09252 14.9742 0.758588 13.9623 0.00860596 12.4868ZM8.63622 14.805L12.1781 4.68809H14.2614L17.8046 14.8063H15.5953L14.8454 12.572H11.4695L10.7189 14.8063H8.63622V14.805ZM11.9695 10.9267H14.304L13.1787 7.51196H13.1367L11.9695 10.9267ZM18.8885 4.73007H22.5143C24.6402 4.73007 26.5988 5.32028 26.5988 7.9756C26.5988 10.6742 24.5149 11.2644 22.5143 11.2644H21.0971V14.8483H18.8885V4.72881V4.73007ZM21.0557 9.49374H22.5563C23.9316 9.49374 24.4316 8.94551 24.4316 7.97623C24.4316 7.04893 23.9316 6.5007 22.5563 6.5007H21.0557V9.49374ZM30.4333 14.8056L33.9339 4.68746H36.0178L39.519 14.8056H37.3097L36.5598 12.6979H33.1839L32.4339 14.8056H30.4333ZM33.7259 11.0112H36.0598L34.9345 7.63852H34.8925L33.7259 11.0112ZM40.8109 14.8056V7.63852H42.8948V8.90353H42.8115C43.1868 8.06019 43.8954 7.21685 45.2287 7.21685H45.3121L45.2707 9.24061H44.7287C43.8534 9.24061 43.2701 9.74687 42.8528 10.2945V14.8056H40.8109ZM46.646 6.37351V4.68746H48.7293V6.37414H46.646V6.37351ZM46.646 14.805V7.63852H48.7293V14.8056L46.646 14.805ZM52.4804 13.9197V14.805H50.3965V4.68746H52.4804V8.6504C52.8971 7.97623 53.6477 7.38602 54.6897 7.38602C56.3149 7.38602 57.4402 8.6504 57.4402 11.1378C57.4402 13.6252 56.2736 14.8896 54.6477 14.8896C53.731 14.8896 52.8971 14.5099 52.4804 13.9197ZM55.3143 11.1378C55.3143 9.91478 54.8563 9.15603 53.8977 9.15603C53.3557 9.15603 52.8971 9.49311 52.4804 9.87218V12.5288C52.8971 12.9924 53.3557 13.2029 53.939 13.2029C54.8563 13.2449 55.3143 12.4868 55.3143 11.1378ZM58.3155 12.9078C58.3155 11.2218 59.5655 10.2938 62.9 10.0413V9.91478C62.9 9.36655 62.608 9.02946 61.9 9.02946C60.9827 9.02946 60.1908 9.40853 59.5241 9.91478L58.6069 8.64977C59.3155 8.01696 60.3988 7.34279 62.1914 7.34279C64.1506 7.34279 64.9839 8.31269 64.9839 10.1673V12.9498C64.9839 13.8351 64.9839 14.2994 65.1506 14.7204H62.9833C62.9 14.2994 62.8167 14.0463 62.8167 13.6666C62.15 14.4253 61.3994 14.847 60.3574 14.847C59.2735 14.889 58.3155 14.1728 58.3155 12.9078ZM62.9 12.6127V11.2637C61.2334 11.4329 60.4408 11.854 60.4408 12.5281C60.4408 12.9918 60.7741 13.2029 61.2327 13.2029C62.0247 13.2449 62.4833 12.9924 62.9 12.6127Z" fill="url(#paint0_linear_903_114)"/>
<path id="Vector_2" d="M90.9908 18.2624L81.5712 0.640625H83.6552C84.0724 0.640625 84.4058 0.851146 84.5724 1.18886L93.9914 18.8106H91.9075C91.5322 18.8106 91.1575 18.6001 90.9908 18.2624ZM73.3196 18.8106H75.4035C75.8201 18.8106 76.1534 18.6001 76.3201 18.2624L78.904 13.4567L77.5707 10.9274L73.3196 18.8106ZM69.2764 18.8106C69.6937 18.8106 70.027 18.6001 70.1937 18.2624L77.5287 4.56159L84.8638 18.2624C85.0304 18.6001 85.3644 18.8106 85.781 18.8106H87.865L78.4454 1.18886C78.2787 0.851146 77.9454 0.640625 77.5287 0.640625C77.1534 0.640625 76.7787 0.851146 76.6121 1.18886L67.1925 18.8106H69.2764Z" fill="url(#paint1_linear_903_114)"/>
</g>
<defs>
<linearGradient id="paint0_linear_903_114" x1="0.00860597" y1="6.27953" x2="93.9914" y2="13.1716" gradientUnits="userSpaceOnUse">
<stop stop-color="#FFF1FF"/>
<stop offset="0.489" stop-color="#FFF6FF"/>
<stop offset="0.733" stop-color="#EAD5FF"/>
</linearGradient>
<linearGradient id="paint1_linear_903_114" x1="0.00860853" y1="6.27959" x2="93.9914" y2="13.1717" gradientUnits="userSpaceOnUse">
<stop stop-color="#FFF1FF"/>
<stop offset="0.489" stop-color="#FFF6FF"/>
<stop offset="0.733" stop-color="#EAD5FF"/>
</linearGradient>
<clipPath id="clip0_903_114">
<rect width="93.9828" height="18.17" fill="white" transform="translate(0.00860596 0.640625)"/>
</clipPath>
</defs>
</svg>
