<svg width="94" height="15" viewBox="0 0 94 15" fill="none" xmlns="http://www.w3.org/2000/svg">
<g id="a71098f347471e3d1ead390ed90591e9.svg" clip-path="url(#clip0_903_97)">
<path id="Vector" fill-rule="evenodd" clip-rule="evenodd" d="M22.6307 5.08595C21.6842 5.08398 20.7674 5.41577 20.0413 6.02299V5.18115H17.6799V14.425H20.1359V8.51591C20.3995 8.17183 20.7364 7.89066 21.122 7.69275C21.5077 7.49483 21.9325 7.38512 22.3658 7.37155C22.701 7.35421 23.0364 7.4047 23.3517 7.51999V5.14984C23.1136 5.10787 22.8725 5.08657 22.6307 5.08595Z" fill="url(#paint0_linear_903_97)"/>
<path id="Vector_2" fill-rule="evenodd" clip-rule="evenodd" d="M1.21283 11.604C1.91318 12.1996 2.80398 12.524 3.72329 12.5185C4.38473 12.5185 4.89459 12.194 4.89459 11.7374C4.89459 10.3456 0.4543 10.8417 0.4543 7.86775C0.4543 6.09577 2.15488 4.99023 3.96883 4.99023C5.07102 4.99347 6.14816 5.31921 7.06745 5.92727L5.91807 7.71554C5.41171 7.32897 4.79778 7.10923 4.16112 7.08667C3.48089 7.08667 2.91403 7.3535 2.91403 7.82954C2.91403 9.03028 7.35495 8.55424 7.35495 11.7562C7.35495 13.5288 5.6337 14.6149 3.70763 14.6149C2.37989 14.6017 1.09025 14.1694 0.0227356 13.3797L1.21283 11.604Z" fill="url(#paint1_linear_903_97)"/>
<path id="Vector_3" fill-rule="evenodd" clip-rule="evenodd" d="M16.6314 9.71677C16.6314 7.14367 14.8381 4.99023 12.3032 4.99023C9.5823 4.99023 7.84351 7.23888 7.84351 9.81261C7.81683 10.4517 7.92282 11.0895 8.15481 11.6856C8.3868 12.2818 8.73976 12.8234 9.19144 13.2764C9.64184 13.7282 10.1818 14.0807 10.7767 14.3112C11.3715 14.5418 12.008 14.6452 12.6452 14.6149C13.3543 14.6246 14.0571 14.4816 14.706 14.1957C15.3549 13.9097 15.9346 13.4874 16.4059 12.9576L15.0072 11.547C14.7148 11.8711 14.3598 12.1326 13.9637 12.3161C13.5676 12.4995 13.1385 12.6009 12.7022 12.6143C12.0892 12.6341 11.4918 12.4188 11.0323 12.0124C10.5717 11.6048 10.2831 11.0375 10.2249 10.4252H16.5744C16.6139 10.1909 16.6326 9.95354 16.6308 9.71677H16.6314ZM10.3383 8.61187C10.426 8.154 10.6709 7.74122 11.0298 7.44558C11.3882 7.14968 11.8391 6.98897 12.3038 6.99147C12.7514 6.99249 13.1829 7.15788 13.5165 7.45623C13.851 7.75531 14.0649 8.16626 14.1178 8.61187H10.3383Z" fill="url(#paint2_linear_903_97)"/>
<path id="Vector_4" fill-rule="evenodd" clip-rule="evenodd" d="M29.2063 10.8213L31.7192 5.17969H34.271L30.0569 14.4236H28.3563L24.1421 5.17969H26.6927L29.2063 10.8213Z" fill="url(#paint3_linear_903_97)"/>
<path id="Vector_5" fill-rule="evenodd" clip-rule="evenodd" d="M36.3337 0.840096C36.6448 0.846994 36.9469 0.945361 37.2025 1.12292C37.458 1.30048 37.6556 1.54937 37.7705 1.83852C37.8855 2.12868 37.9127 2.44623 37.8486 2.7517C37.7846 3.05716 37.6322 3.33707 37.4104 3.55664C37.1889 3.77504 36.9078 3.92299 36.6023 3.98184C36.2969 4.0407 35.9809 4.00782 35.6942 3.88736C35.4075 3.76623 35.163 3.56315 34.9914 3.30358C34.8616 3.10706 34.7772 2.8842 34.744 2.65106C34.7109 2.41793 34.7299 2.18035 34.7997 1.95546C34.8695 1.73057 34.9884 1.52398 35.1477 1.35059C35.307 1.17721 35.5029 1.04136 35.7211 0.952842C35.9153 0.874546 36.1238 0.836338 36.3337 0.840096Z" fill="url(#paint4_linear_903_97)"/>
<path id="Vector_6" d="M37.5613 5.17969H35.1053V14.4236H37.5613V5.17969Z" fill="url(#paint5_linear_903_97)"/>
<path id="Vector_7" fill-rule="evenodd" clip-rule="evenodd" d="M47.7172 12.5374C47.2528 13.205 46.6282 13.7454 45.9007 14.109C45.1746 14.4718 44.3687 14.6458 43.5575 14.6151C42.9169 14.6316 42.2795 14.5188 41.6835 14.2835C41.0874 14.0483 40.5448 13.6954 40.0881 13.2459C39.3984 12.5666 38.9284 11.696 38.739 10.7467C38.5496 9.79735 38.6495 8.81304 39.0258 7.92113C39.2763 7.32922 39.6421 6.79368 40.1012 6.34583C40.5597 5.89813 41.1036 5.54738 41.7005 5.3145C42.2975 5.08162 42.9352 4.97138 43.5757 4.99038C44.316 4.98494 45.0478 5.14861 45.7153 5.46892C46.384 5.78961 46.9709 6.25827 47.4316 6.8394L45.6928 8.38276C45.4515 8.04534 45.1342 7.76944 44.7665 7.57738C44.3988 7.38533 43.9911 7.2825 43.5763 7.27723C43.2466 7.27566 42.9199 7.34063 42.6158 7.46828C42.3118 7.59592 42.0366 7.78361 41.8068 8.0201C41.5759 8.25682 41.3948 8.53742 41.2742 8.84533C41.1536 9.15323 41.096 9.48219 41.1047 9.81275C41.0938 10.1481 41.1521 10.4822 41.2758 10.7941C41.3995 11.1061 41.586 11.3893 41.8237 11.6261C42.0613 11.8617 42.345 12.0457 42.6571 12.1664C42.9691 12.2871 43.3028 12.342 43.6371 12.3276C44.0738 12.3188 44.5018 12.2031 44.8835 11.9906C45.2659 11.7778 45.5906 11.4749 45.8293 11.1081L47.7172 12.5374Z" fill="url(#paint6_linear_903_97)"/>
<path id="Vector_8" fill-rule="evenodd" clip-rule="evenodd" d="M56.641 12.9576C56.1687 13.4871 55.5884 13.9091 54.9392 14.1953C54.2909 14.4811 53.5888 14.6242 52.8803 14.6149C52.2433 14.645 51.607 14.5413 51.0124 14.3107C50.4178 14.08 49.878 13.7275 49.4278 13.2758C48.9763 12.8227 48.6236 12.281 48.3918 11.6849C48.16 11.0887 48.0542 10.451 48.0811 9.81198C48.0811 7.23888 49.8193 4.99023 52.5408 4.99023C55.072 4.99023 56.8671 7.14367 56.8671 9.71677C56.8688 9.95306 56.8499 10.189 56.8108 10.4221H50.4613C50.5188 11.0346 50.807 11.6025 51.2674 12.0105C51.7272 12.4177 52.3247 12.6331 52.9373 12.6137C53.3737 12.6008 53.803 12.4996 54.1992 12.3162C54.5953 12.1327 54.9502 11.8709 55.2423 11.5464L56.641 12.9576ZM54.3548 8.6125C54.3018 8.16688 54.088 7.75594 53.7535 7.45685C53.4198 7.15832 52.988 6.9929 52.5402 6.99209C52.0757 6.98969 51.625 7.1504 51.2668 7.44621C50.9076 7.74263 50.663 8.15509 50.5753 8.6125H54.3548Z" fill="url(#paint7_linear_903_97)"/>
<path id="Vector_9" fill-rule="evenodd" clip-rule="evenodd" d="M57.8442 14.4245V5.18067H60.2056V5.92354C60.932 5.31777 61.8486 4.98733 62.7944 4.99025C63.4004 4.98945 63.9991 5.12229 64.5479 5.37931C65.0967 5.63633 65.5821 6.01121 65.9694 6.47724C66.6763 7.4032 67.013 8.55921 66.914 9.71993V14.4245H64.4574V9.52387C64.492 9.21259 64.4611 8.89753 64.3668 8.59886C64.2726 8.30019 64.1169 8.02451 63.9099 7.78947C63.5364 7.44215 63.0404 7.2572 62.5307 7.27523C62.0973 7.28789 61.6722 7.39714 61.2865 7.59501C60.9007 7.79288 60.564 8.07438 60.3008 8.41897V14.4245H57.8442Z" fill="url(#paint8_linear_903_97)"/>
<path id="Vector_10" fill-rule="evenodd" clip-rule="evenodd" d="M73.2396 4.98953C72.1613 4.98764 71.1074 5.31092 70.2155 5.91718C69.322 6.525 68.6312 7.38684 68.2325 8.39131C67.833 9.39773 67.7436 10.5006 67.9757 11.5582C68.2072 12.6148 68.75 13.5778 69.5341 14.323C69.7174 14.4986 69.9577 14.6025 70.2112 14.6157C70.4648 14.6289 70.7146 14.5506 70.9152 14.395C71.5772 13.8999 72.3817 13.6324 73.2083 13.6324C74.035 13.6324 74.8394 13.8999 75.5014 14.395C75.7039 14.5512 75.956 14.629 76.2113 14.6141C76.4666 14.5991 76.7079 14.4924 76.8907 14.3136C77.6683 13.571 78.2073 12.6138 78.4391 11.5638C78.6712 10.5129 78.5858 9.41673 78.1935 8.41449C77.8024 7.41339 77.1213 6.55188 76.2374 5.94035C75.3558 5.33037 74.3116 4.99874 73.2396 4.98828M73.2083 13.0909C72.8537 13.1006 72.5009 13.0376 72.1716 12.9058C71.8422 12.7739 71.5434 12.576 71.2935 12.3243C71.0427 12.072 70.8456 11.7715 70.7144 11.4408C70.5831 11.1102 70.5204 10.7563 70.53 10.4007C70.53 9.68664 70.8125 9.00265 71.3148 8.4978C71.563 8.2482 71.858 8.05009 72.1829 7.91487C72.5079 7.77964 72.8563 7.70996 73.2083 7.70983C73.9186 7.70983 74.5995 7.99295 75.1018 8.4978C75.6046 9.00344 75.8868 9.68759 75.8866 10.4007C75.8962 10.7563 75.8335 11.1102 75.7022 11.4408C75.571 11.7715 75.374 12.072 75.1231 12.3243C74.8727 12.5754 74.5738 12.7729 74.2446 12.9047C73.9154 13.0365 73.5628 13.0999 73.2083 13.0909Z" fill="url(#paint9_linear_903_97)"/>
<path id="Vector_11" fill-rule="evenodd" clip-rule="evenodd" d="M83.4256 14.4236H81.596L77.9474 5.17969H80.4002L82.4008 10.4624L84.3626 5.17969H86.4121L88.3557 10.4624L90.3732 5.17969H92.8267L89.1787 14.4236H87.3491L85.3873 9.16023L83.4256 14.4236Z" fill="url(#paint10_linear_903_97)"/>
<path id="Vector_12" d="M92.8548 13.3788H92.6475V13.7703H92.4709V12.6992H92.9012C92.9693 12.6987 93.036 12.7186 93.0927 12.7565C93.1493 12.7944 93.1932 12.8484 93.2188 12.9116C93.2525 12.9951 93.2519 13.0886 93.2171 13.1716C93.1822 13.2547 93.116 13.3206 93.0327 13.355L93.2751 13.7722H93.0828L92.8548 13.3788ZM92.6475 13.221H92.9012C92.949 13.221 92.9948 13.202 93.0285 13.1682C93.0623 13.1345 93.0813 13.0887 93.0813 13.0409C93.0813 12.9932 93.0623 12.9473 93.0285 12.9136C92.9948 12.8798 92.949 12.8608 92.9012 12.8608H92.65L92.6475 13.221Z" fill="url(#paint11_linear_903_97)"/>
<path id="Vector_13" d="M92.8298 12.2607C93.0259 12.2606 93.2176 12.3188 93.3805 12.428C93.5434 12.5372 93.67 12.6925 93.7443 12.8739C93.8189 13.0557 93.8383 13.2553 93.8002 13.448C93.7621 13.6407 93.6682 13.8179 93.5301 13.9576C93.392 14.0962 93.2158 14.1907 93.0238 14.2291C92.8319 14.2675 92.6329 14.2479 92.4521 14.173C92.2707 14.0978 92.1159 13.9703 92.0071 13.8068C91.8984 13.6433 91.8407 13.4511 91.8414 13.2548C91.842 12.9917 91.946 12.7386 92.1314 12.5526C92.2229 12.4605 92.3317 12.3873 92.4516 12.3372C92.5714 12.2871 92.6999 12.2611 92.8298 12.2607ZM92.8298 12.1041C92.6023 12.1038 92.3799 12.1714 92.191 12.2981C92.0021 12.4249 91.8553 12.6051 91.7694 12.8157C91.6829 13.0264 91.6603 13.2579 91.7046 13.4814C91.7488 13.7048 91.8578 13.9103 92.018 14.0722C92.1784 14.2329 92.3829 14.3425 92.6055 14.387C92.8282 14.4314 93.0591 14.4089 93.2689 14.3221C93.4437 14.2492 93.598 14.1343 93.7179 13.9876C93.8378 13.841 93.9198 13.667 93.9566 13.4812C93.9934 13.2953 93.9838 13.1033 93.9288 12.922C93.8737 12.7407 93.7749 12.5758 93.6409 12.4418C93.5347 12.3346 93.4084 12.2496 93.2692 12.1916C93.13 12.1335 92.9806 12.1042 92.8298 12.1041Z" fill="url(#paint12_linear_903_97)"/>
</g>
<defs>
<linearGradient id="paint0_linear_903_97" x1="0.0227423" y1="7.73045" x2="93.9773" y2="14.6205" gradientUnits="userSpaceOnUse">
<stop stop-color="#FFECFF"/>
<stop offset="0.536" stop-color="#FFF1FF"/>
<stop offset="1" stop-color="#FFDCFF"/>
</linearGradient>
<linearGradient id="paint1_linear_903_97" x1="0.0227355" y1="7.72995" x2="93.9773" y2="14.62" gradientUnits="userSpaceOnUse">
<stop stop-color="#FFECFF"/>
<stop offset="0.536" stop-color="#FFF1FF"/>
<stop offset="1" stop-color="#FFDCFF"/>
</linearGradient>
<linearGradient id="paint2_linear_903_97" x1="0.0227324" y1="7.72995" x2="93.9773" y2="14.6199" gradientUnits="userSpaceOnUse">
<stop stop-color="#FFECFF"/>
<stop offset="0.536" stop-color="#FFF1FF"/>
<stop offset="1" stop-color="#FFDCFF"/>
</linearGradient>
<linearGradient id="paint3_linear_903_97" x1="0.0227327" y1="7.72899" x2="93.9773" y2="14.619" gradientUnits="userSpaceOnUse">
<stop stop-color="#FFECFF"/>
<stop offset="0.536" stop-color="#FFF1FF"/>
<stop offset="1" stop-color="#FFDCFF"/>
</linearGradient>
<linearGradient id="paint4_linear_903_97" x1="0.0227497" y1="7.7301" x2="93.9773" y2="14.6201" gradientUnits="userSpaceOnUse">
<stop stop-color="#FFECFF"/>
<stop offset="0.536" stop-color="#FFF1FF"/>
<stop offset="1" stop-color="#FFDCFF"/>
</linearGradient>
<linearGradient id="paint5_linear_903_97" x1="0.0227086" y1="7.72899" x2="93.9773" y2="14.619" gradientUnits="userSpaceOnUse">
<stop stop-color="#FFECFF"/>
<stop offset="0.536" stop-color="#FFF1FF"/>
<stop offset="1" stop-color="#FFDCFF"/>
</linearGradient>
<linearGradient id="paint6_linear_903_97" x1="0.0227431" y1="7.73009" x2="93.9773" y2="14.6201" gradientUnits="userSpaceOnUse">
<stop stop-color="#FFECFF"/>
<stop offset="0.536" stop-color="#FFF1FF"/>
<stop offset="1" stop-color="#FFDCFF"/>
</linearGradient>
<linearGradient id="paint7_linear_903_97" x1="0.022739" y1="7.73058" x2="93.9773" y2="14.6206" gradientUnits="userSpaceOnUse">
<stop stop-color="#FFECFF"/>
<stop offset="0.536" stop-color="#FFF1FF"/>
<stop offset="1" stop-color="#FFDCFF"/>
</linearGradient>
<linearGradient id="paint8_linear_903_97" x1="0.0227491" y1="7.72997" x2="93.9773" y2="14.62" gradientUnits="userSpaceOnUse">
<stop stop-color="#FFECFF"/>
<stop offset="0.536" stop-color="#FFF1FF"/>
<stop offset="1" stop-color="#FFDCFF"/>
</linearGradient>
<linearGradient id="paint9_linear_903_97" x1="0.022722" y1="7.72925" x2="93.9773" y2="14.6192" gradientUnits="userSpaceOnUse">
<stop stop-color="#FFECFF"/>
<stop offset="0.536" stop-color="#FFF1FF"/>
<stop offset="1" stop-color="#FFDCFF"/>
</linearGradient>
<linearGradient id="paint10_linear_903_97" x1="0.0227519" y1="7.72899" x2="93.9773" y2="14.619" gradientUnits="userSpaceOnUse">
<stop stop-color="#FFECFF"/>
<stop offset="0.536" stop-color="#FFF1FF"/>
<stop offset="1" stop-color="#FFDCFF"/>
</linearGradient>
<linearGradient id="paint11_linear_903_97" x1="0.022992" y1="7.72903" x2="93.9773" y2="14.619" gradientUnits="userSpaceOnUse">
<stop stop-color="#FFECFF"/>
<stop offset="0.536" stop-color="#FFF1FF"/>
<stop offset="1" stop-color="#FFDCFF"/>
</linearGradient>
<linearGradient id="paint12_linear_903_97" x1="0.022808" y1="7.72962" x2="93.9773" y2="14.6196" gradientUnits="userSpaceOnUse">
<stop stop-color="#FFECFF"/>
<stop offset="0.536" stop-color="#FFF1FF"/>
<stop offset="1" stop-color="#FFDCFF"/>
</linearGradient>
<clipPath id="clip0_903_97">
<rect width="93.9545" height="13.78" fill="white" transform="translate(0.0227356 0.839844)"/>
</clipPath>
</defs>
</svg>
