<svg width="126" height="98" viewBox="0 0 126 98" fill="none" xmlns="http://www.w3.org/2000/svg">
<g id="c369a001f5da0e792a01c907d5b3d28a.svg" clip-path="url(#clip0_903_260)">
<path id="Vector" fill-rule="evenodd" clip-rule="evenodd" d="M56.1151 9.35569C52.145 15.6082 50.2562 18.7896 50.2562 19.2258C50.2562 19.674 55.095 27.4676 66.1511 44.8248C74.8921 58.5511 82.6675 70.7388 83.4271 71.9091L84.8119 74.0365L87.0156 69.142C89.9959 62.5199 90.7216 60.5803 91.2849 57.7127C92.4358 51.8624 91.4618 44.8248 88.811 39.8273C88.066 38.422 63.7499 1.56817 62.897 0.550508C62.7032 0.3179 62.4161 0.128906 62.2586 0.128906C62.1023 0.128906 59.3377 4.28072 56.1151 9.35569ZM45.575 40.5361C40.1172 41.7245 34.8108 44.9907 31.5047 49.1971C28.9326 52.4705 0.0323017 95.7623 0.0177637 96.3668L0.00201416 96.9677L12.6343 97.0295C23.1986 97.0816 25.3199 97.0368 25.5925 96.7557C25.7718 96.5716 29.2694 91.4833 33.3655 85.4476C37.4604 79.4143 40.8805 74.475 40.9628 74.475C41.0476 74.4738 42.5014 76.8811 44.1975 79.825C47.6297 85.7819 49.1889 88.0414 51.1612 89.9229C55.4403 94.0008 60.6739 96.3511 66.5473 96.8345C67.9114 96.9471 81.8304 96.9677 97.4769 96.8829C123.746 96.7388 125.929 96.6964 125.998 96.3268C126.079 95.8907 113.263 75.34 112.481 74.6531C112.029 74.2557 109.977 74.2315 76.5821 74.2315C57.1012 74.2315 41.1676 74.1503 41.1761 74.051C41.1833 73.9517 46.2074 66.5082 52.3388 57.5104C58.4702 48.5126 63.4604 41.1188 63.4289 41.0788C63.2835 40.9007 51.9972 40.0733 49.9061 40.0854C48.6074 40.0951 46.6896 40.2938 45.575 40.5361Z" fill="url(#paint0_linear_903_260)"/>
</g>
<defs>
<linearGradient id="paint0_linear_903_260" x1="63" y1="0.128906" x2="63" y2="97.0489" gradientUnits="userSpaceOnUse">
<stop offset="0.25" stop-color="#9966FF"/>
<stop offset="1" stop-color="#9966FF" stop-opacity="0.3"/>
</linearGradient>
<clipPath id="clip0_903_260">
<rect width="125.996" height="96.92" fill="white" transform="translate(0.00201416 0.128906)"/>
</clipPath>
</defs>
</svg>
