<svg width="107" height="25" viewBox="0 0 107 25" fill="none" xmlns="http://www.w3.org/2000/svg">
<g id="Frame">
<g id="Clip path group">
<mask id="mask0_903_312" style="mask-type:luminance" maskUnits="userSpaceOnUse" x="0" y="0" width="107" height="25">
<g id="logo_inline_svg__a">
<path id="Vector" d="M0.947838 0.228516H106.949V24.2285H0.947838V0.228516Z" fill="white"/>
</g>
</mask>
<g mask="url(#mask0_903_312)">
<g id="Group">
<g id="Group_2">
<path id="Vector_2" fill-rule="evenodd" clip-rule="evenodd" d="M16.0898 2.51352C15.0188 4.06152 14.5098 4.84952 14.5098 4.95752C14.5098 5.06752 15.8148 6.99752 18.7978 11.2975C21.1578 14.6955 23.2548 17.7135 23.4598 18.0035L23.8338 18.5305L24.4288 17.3185C25.2328 15.6785 25.4288 15.1985 25.5808 14.4885C25.8908 13.0385 25.6278 11.2965 24.9128 10.0585C24.7118 9.71052 18.1498 0.584516 17.9198 0.332516C17.8678 0.275516 17.7898 0.228516 17.7478 0.228516C17.7058 0.228516 16.9598 1.25652 16.0898 2.51352ZM13.2458 10.2345C11.7728 10.5285 10.3408 11.3375 9.44884 12.3795C8.75484 13.1895 0.955838 23.9095 0.951838 24.0595L0.947838 24.2085L4.35684 24.2235C7.20684 24.2365 7.77984 24.2255 7.85384 24.1555C7.90184 24.1105 8.84584 22.8505 9.95084 21.3555C11.0558 19.8615 11.9788 18.6385 12.0008 18.6385C12.0238 18.6385 12.4168 19.2345 12.8738 19.9635C13.7998 21.4385 14.2208 21.9985 14.7538 22.4635C15.9078 23.4735 17.3198 24.0555 18.9048 24.1755C19.2728 24.2035 23.0288 24.2085 27.2508 24.1875C34.3408 24.1515 34.9288 24.1415 34.9478 24.0495C34.9698 23.9415 31.5108 18.8525 31.3008 18.6825C31.1788 18.5845 30.6248 18.5785 21.6128 18.5785C16.3558 18.5785 12.0568 18.5585 12.0588 18.5335C12.0608 18.5095 13.4158 16.6655 15.0708 14.4375C16.7258 12.2095 18.0728 10.3785 18.0638 10.3685C18.0238 10.3245 14.9788 10.1195 14.4138 10.1235C14.0638 10.1255 13.5468 10.1745 13.2458 10.2345Z" fill="#9966FF"/>
</g>
<path id="Vector_3" fill-rule="evenodd" clip-rule="evenodd" d="M98.0828 4.22852C92.8718 4.22852 89.1898 7.89152 89.1898 13.2285C89.1898 18.5655 92.7168 22.2285 98.0818 22.2285C103.448 22.2285 106.949 18.6965 106.949 13.2285C106.949 7.76052 103.294 4.22852 98.0828 4.22852ZM98.0828 6.92352C101.634 6.92352 104.019 9.40852 104.019 13.2285C104.019 17.0485 101.634 19.5335 98.0828 19.5335C94.5308 19.5335 92.1458 17.0485 92.1458 13.2285C92.1458 9.40852 94.5308 6.92352 98.0828 6.92352ZM42.2678 7.36852H37.0198C37.0006 7.36825 36.9823 7.36045 36.9689 7.34678C36.9554 7.33312 36.9478 7.3147 36.9478 7.29552V4.69352C36.9478 4.65352 36.9798 4.62052 37.0198 4.62052H50.5898C50.6298 4.62052 50.6618 4.65352 50.6618 4.69352V7.29552C50.6618 7.33552 50.6288 7.36852 50.5898 7.36852H45.3158C45.2968 7.36877 45.2787 7.37644 45.2652 7.38989C45.2518 7.40334 45.2441 7.4215 45.2438 7.44052V21.7625C45.2438 21.8025 45.2108 21.8355 45.1708 21.8355H42.4118C42.3927 21.8353 42.3743 21.8274 42.3609 21.8138C42.3474 21.8001 42.3398 21.7817 42.3398 21.7625V7.44052C42.3396 7.4215 42.3319 7.40334 42.3185 7.38989C42.305 7.37644 42.2869 7.36877 42.2678 7.36852ZM52.0318 4.62152H61.8158C61.8558 4.62152 61.8878 4.65352 61.8878 4.69452V7.29452C61.8878 7.33452 61.8558 7.36852 61.8158 7.36852H54.9358C54.9263 7.36852 54.9168 7.3704 54.9079 7.37407C54.899 7.37774 54.891 7.38312 54.8842 7.3899C54.8774 7.39668 54.8721 7.40472 54.8684 7.41358C54.8647 7.42244 54.8628 7.43193 54.8628 7.44152V11.6645C54.8628 11.7045 54.8958 11.7375 54.9358 11.7375H61.5568C61.5968 11.7375 61.6298 11.7695 61.6298 11.8105V14.4375C61.6298 14.4775 61.5968 14.5105 61.5568 14.5105H54.9358C54.9263 14.5105 54.9168 14.5124 54.9079 14.5161C54.899 14.5197 54.891 14.5251 54.8842 14.5319C54.8774 14.5387 54.8721 14.5467 54.8684 14.5556C54.8647 14.5644 54.8628 14.5739 54.8628 14.5835V19.0155C54.8628 19.0555 54.8958 19.0885 54.9358 19.0885H62.0498C62.0898 19.0885 62.1218 19.1215 62.1218 19.1615V21.7635C62.1218 21.8035 62.0898 21.8365 62.0498 21.8365H52.0318C52.0127 21.8363 51.9943 21.8284 51.9809 21.8148C51.9674 21.8011 51.9598 21.7827 51.9598 21.7635V4.69352C51.9598 4.65352 51.9918 4.62152 52.0318 4.62152ZM67.9378 14.7455C69.1558 14.7455 69.9858 15.3995 70.4778 16.7595L72.2238 21.7875C72.2338 21.8165 72.2608 21.8365 72.2918 21.8365H75.2988C75.3106 21.8365 75.3223 21.8336 75.3327 21.8281C75.3432 21.8225 75.3521 21.8146 75.3588 21.8048C75.3655 21.7951 75.3697 21.7839 75.3711 21.7722C75.3725 21.7604 75.371 21.7486 75.3668 21.7375L73.3038 16.1325C72.8408 14.8545 72.0568 14.0375 70.9748 13.6625C70.9108 13.6395 70.9088 13.5475 70.9748 13.5245C72.9368 12.8275 73.9528 11.2235 73.9528 9.25252C73.9528 6.47852 71.9038 4.62152 68.4828 4.62152H63.5518C63.5325 4.62152 63.5139 4.62921 63.5002 4.6429C63.4865 4.65659 63.4788 4.67515 63.4788 4.69452V21.7625C63.4788 21.8025 63.5118 21.8355 63.5518 21.8355H66.3098C66.3498 21.8355 66.3828 21.8025 66.3828 21.7625V14.8185C66.3828 14.7785 66.4148 14.7455 66.4548 14.7455H67.9378ZM70.9978 9.72252C70.9978 11.2405 70.0118 12.2605 68.4308 12.2605H66.4548C66.4357 12.2603 66.4173 12.2524 66.4039 12.2388C66.3904 12.2251 66.3828 12.2067 66.3828 12.1875V7.33652C66.3828 7.29652 66.4148 7.26352 66.4548 7.26352H68.4048C69.9608 7.26352 70.9978 8.23052 70.9978 9.72252ZM76.2838 20.2355C76.2838 20.2215 76.2878 20.2065 76.2958 20.1955L83.9828 8.75452L84.8398 7.48152C84.847 7.47058 84.8511 7.45792 84.8517 7.44486C84.8523 7.4318 84.8494 7.41882 84.8433 7.40727C84.8371 7.39573 84.828 7.38604 84.8168 7.37922C84.8057 7.3724 84.7929 7.36871 84.7798 7.36852H76.5898C76.5706 7.36825 76.5523 7.36045 76.5389 7.34678C76.5254 7.33312 76.5178 7.3147 76.5178 7.29552V4.69452C76.5178 4.65452 76.5498 4.62152 76.5898 4.62152H89.0958C89.1358 4.62152 89.1678 4.65352 89.1678 4.69452V6.22052C89.1678 6.23552 89.1638 6.25052 89.1558 6.26052L81.4428 17.7285L80.6118 18.9755C80.6047 18.9865 80.6006 18.9991 80.6 19.0122C80.5994 19.0252 80.6023 19.0382 80.6084 19.0498C80.6146 19.0613 80.6237 19.071 80.6348 19.0778C80.646 19.0846 80.6588 19.0883 80.6718 19.0885H89.0958C89.1358 19.0885 89.1678 19.1215 89.1678 19.1615V21.7635C89.1678 21.8035 89.1358 21.8365 89.0958 21.8365H76.3558C76.3366 21.8363 76.3183 21.8284 76.3049 21.8148C76.2914 21.8011 76.2838 21.7827 76.2838 21.7635V20.2355Z" fill="white"/>
</g>
</g>
</g>
</g>
</svg>
