<svg width="116" height="90" viewBox="0 0 116 90" fill="none" xmlns="http://www.w3.org/2000/svg">
<g id="c369a001f5da0e792a01c907d5b3d28a.svg" clip-path="url(#clip0_903_79)">
<path id="Vector" fill-rule="evenodd" clip-rule="evenodd" d="M51.6621 8.72421C48.0074 14.48 46.2687 17.4087 46.2687 17.8102C46.2687 18.2228 50.723 25.3972 60.9008 41.3754C68.9473 54.0112 76.105 65.2306 76.8042 66.3079L78.079 68.2663L80.1076 63.7607C82.8511 57.6647 83.5192 55.8792 84.0378 53.2394C85.0972 47.8539 84.2006 41.3754 81.7604 36.775C81.0745 35.4813 58.6904 1.55539 57.9052 0.618576C57.7268 0.404448 57.4625 0.230469 57.3175 0.230469C57.1736 0.230469 54.6286 4.05243 51.6621 8.72421ZM41.9594 37.4274C36.9352 38.5215 32.0504 41.5282 29.0069 45.4003C26.6392 48.4137 0.0349003 88.2661 0.0215173 88.8226L0.00701904 89.3757L11.6357 89.4326C21.3607 89.4806 23.3135 89.4393 23.5644 89.1806C23.7295 89.0111 26.9492 84.327 30.7199 78.7708C34.4894 73.2169 37.6378 68.67 37.7136 68.67C37.7917 68.6689 39.13 70.8849 40.6913 73.595C43.8508 79.0786 45.2862 81.1586 47.1018 82.8906C51.0409 86.6445 55.8587 88.8081 61.2655 89.2531C62.5212 89.3568 75.3344 89.3757 89.7378 89.2977C113.92 89.165 115.929 89.1259 115.993 88.7858C116.068 88.3843 104.27 69.4663 103.55 68.834C103.134 68.4682 101.245 68.4458 70.5031 68.4458C52.5699 68.4458 37.9021 68.3711 37.9099 68.2797C37.9166 68.1882 42.5415 61.3361 48.1858 53.0532C53.8301 44.7702 58.4238 37.9638 58.3948 37.927C58.261 37.7631 47.8713 37.0014 45.9464 37.0125C44.7509 37.0215 42.9854 37.2044 41.9594 37.4274Z" fill="url(#paint0_linear_903_79)"/>
</g>
<defs>
<linearGradient id="paint0_linear_903_79" x1="58" y1="0.230469" x2="58" y2="89.4505" gradientUnits="userSpaceOnUse">
<stop offset="0.25" stop-color="#9966FF"/>
<stop offset="1" stop-color="#9966FF" stop-opacity="0.3"/>
</linearGradient>
<clipPath id="clip0_903_79">
<rect width="115.986" height="89.22" fill="white" transform="translate(0.00701904 0.230469)"/>
</clipPath>
</defs>
</svg>
