<svg width="94" height="39" viewBox="0 0 94 39" fill="none" xmlns="http://www.w3.org/2000/svg">
<g id="8c5750166b8b8a5e27e11efbdfea528b.svg" clip-path="url(#clip0_903_119)">
<path id="Vector" d="M48.0915 0.956549C51.4524 0.841094 54.8355 1.34587 58.0052 2.47022C62.7737 4.14297 67.0355 7.20924 70.1541 11.1804C71.5256 12.9258 72.6749 14.8349 73.5755 16.8638C73.7353 17.2008 73.8581 17.5794 73.7722 17.9553C73.6675 18.5863 73.1143 19.1071 72.4787 19.1702C71.8175 19.2669 71.1348 18.8548 70.8992 18.2325C69.1083 14.0218 66.0528 10.3634 62.2401 7.83149C59.876 6.25383 57.247 5.1151 54.4791 4.46987C50.9031 3.63786 47.1839 3.63694 43.6075 4.46719C38.5228 5.63785 33.8664 8.55309 30.5826 12.6027C29.189 14.3125 28.0415 16.2088 27.1733 18.2365C26.9854 18.7064 26.5551 19.0756 26.0523 19.1582C25.8087 19.2033 25.5577 19.1872 25.3218 19.1113C25.0859 19.0354 24.8726 18.902 24.7011 18.7232C24.5048 18.5205 24.3702 18.2661 24.3129 17.9898C24.2556 17.7135 24.2781 17.4266 24.3776 17.1625C26.7632 11.5261 31.18 6.79173 36.6104 3.97315C40.164 2.12256 44.0872 1.09177 48.0915 0.956549Z" fill="url(#paint0_linear_903_119)"/>
<path id="Vector_2" d="M43.6505 18.3103C43.6304 18.0176 43.9076 17.7981 44.1821 17.7914C44.5392 17.782 44.897 17.7847 45.2548 17.79C45.5031 17.7981 45.7931 17.9639 45.7918 18.2425C45.8052 21.5175 45.7844 24.7939 45.8032 28.0702C47.1309 26.5948 48.4701 25.1275 49.8025 23.6561C50.065 23.3977 50.2724 23.0056 50.6805 22.9714C51.2309 22.9493 51.7813 22.9627 52.3324 22.9634C52.5446 22.9446 52.7815 23.1392 52.707 23.3654C52.6197 23.54 52.46 23.6601 52.3298 23.7984C50.8893 25.2376 49.4427 26.6713 48.0096 28.1159C49.3937 29.696 50.7597 31.2916 52.1378 32.8771C52.315 33.1026 52.5372 33.2946 52.6862 33.5429C52.7949 33.7376 52.6144 33.9739 52.4056 33.9833C51.9478 34.0088 51.4893 33.9833 51.0302 33.9947C50.7919 33.9886 50.5335 34.0235 50.3173 33.9007C50.0891 33.7698 49.9502 33.5355 49.7871 33.3389C48.4573 31.6654 47.1363 29.986 45.8018 28.3152C45.7884 29.9625 45.7978 31.6091 45.7965 33.2556C45.7918 33.4449 45.83 33.6738 45.6649 33.8128C45.4018 34.0672 45.0091 33.9779 44.6802 33.994C44.3882 33.9846 44.0465 34.0477 43.8096 33.8329C43.6773 33.7302 43.6431 33.555 43.6485 33.3986C43.6518 28.3683 43.6465 23.3386 43.6505 18.3103Z" fill="url(#paint1_linear_903_119)"/>
<path id="Vector_3" d="M37.5938 22.9362C38.261 22.7221 39.0121 22.6811 39.6653 22.9637C39.8942 23.0711 40.1607 23.3007 40.0573 23.5833C39.9526 23.9377 39.8626 24.2968 39.7384 24.6452C39.6465 24.8956 39.3558 24.9882 39.1115 24.9392C38.5611 24.8453 38.0214 24.664 37.4575 24.6821C37.0642 24.6727 36.701 24.8835 36.4319 25.1574C35.9976 25.5816 35.7727 26.175 35.672 26.7637C35.5915 27.1893 35.615 27.6242 35.6116 28.0538L35.6109 33.4755C35.6364 33.7729 35.329 33.9743 35.0605 33.985C34.6913 33.9897 34.3241 33.9944 33.9556 33.9816C33.6898 33.9682 33.3904 33.7735 33.4253 33.4748C33.4233 30.1287 33.4213 26.7838 33.4253 23.4383C33.4025 23.1054 33.7717 22.9248 34.061 22.9557C34.4235 22.9798 34.9195 22.8436 35.1551 23.2081C35.3344 23.6316 35.4196 24.0888 35.5881 24.5157C36.0942 23.8216 36.7655 23.2094 37.5938 22.9362Z" fill="url(#paint2_linear_903_119)"/>
<path id="Vector_4" d="M0.0125121 23.1917C0.115213 23.0742 0.234025 22.9474 0.405193 22.9595C0.905275 22.9548 1.4067 22.9434 1.90611 22.9662C2.15984 22.9742 2.33504 23.1964 2.37196 23.4327C2.86331 25.4303 3.34594 27.4307 3.83528 29.429C3.97893 30.0465 4.15345 30.6574 4.24743 31.2843C4.34409 31.8482 4.36288 32.4207 4.45484 32.9859C4.58104 32.1791 4.69381 31.3682 4.91129 30.5802L6.83107 23.4267C6.88141 23.1541 7.13716 22.9615 7.40969 22.9615C7.96615 22.9474 8.52396 22.9568 9.07976 22.9568C9.37846 22.9434 9.69731 23.1172 9.7698 23.4226C10.2477 25.1612 10.7196 26.9031 11.1962 28.6429C11.4848 29.7706 11.8634 30.8782 12.0265 32.0341C12.0715 32.3529 12.1158 32.6718 12.1809 32.9879C12.3608 31.1715 12.8287 29.4035 13.2133 27.6247C13.5308 26.2097 13.8416 24.7926 14.1625 23.3777C14.2101 23.093 14.5115 22.9501 14.776 22.9581C15.2257 22.9554 15.6768 22.9427 16.1265 22.9655C16.393 22.9736 16.5467 23.2676 16.4528 23.5059C15.5493 26.8359 14.6498 30.168 13.7463 33.4981C13.7227 33.6293 13.6549 33.7485 13.5542 33.8359C13.4534 33.9232 13.3258 33.9734 13.1925 33.978C12.4951 34.0009 11.7963 33.9834 11.0982 33.9868C10.8485 34.0022 10.584 33.8686 10.5404 33.6055C9.91613 31.3159 9.30395 29.0215 8.68573 26.7299C8.46154 25.9324 8.37025 25.1061 8.27627 24.2865C8.16216 25.0162 8.1051 25.7586 7.91044 26.4755C7.27745 28.8356 6.64044 31.1964 6.00543 33.5558C5.93428 33.9384 5.49662 34.015 5.17174 33.9894C4.52264 33.978 3.87421 34.0049 3.22646 33.978C2.99555 33.978 2.81699 33.7988 2.77605 33.5807C1.86516 30.2653 0.958303 26.946 0.0460746 23.6307C0.0145258 23.4857 0.0192246 23.3381 0.0118408 23.1924L0.0125121 23.1917Z" fill="url(#paint3_linear_903_119)"/>
<path id="Vector_5" d="M81.8137 22.9657C82.2878 22.9567 82.762 22.9567 83.2361 22.9657C83.5241 22.9698 83.7953 23.1671 83.8859 23.4423C84.7035 25.5776 85.5157 27.7182 86.3326 29.8548C86.5031 30.2884 86.6226 30.7408 86.6991 31.2C87.0367 29.9326 87.4858 28.6989 87.8805 27.4477C88.3202 26.0958 88.7598 24.7425 89.2015 23.3893C89.2666 23.1544 89.4915 22.9933 89.7298 22.9731C90.1164 22.9449 90.5058 22.9698 90.8931 22.9597C91.1193 22.9624 91.3891 22.9355 91.5616 23.1174C91.6737 23.2114 91.6496 23.3692 91.6033 23.492C90.2963 27.2174 88.9934 30.9449 87.6879 34.6717C87.461 35.2926 87.2871 35.9417 86.922 36.5001C86.3977 37.3506 85.5486 37.9635 84.6155 38.2944C84.2893 38.3951 83.953 38.6186 83.6026 38.4938C83.3536 38.43 83.2583 38.1716 83.1254 37.9816C83.0301 37.8091 82.8535 37.6493 82.8904 37.4345C82.9072 37.2217 83.0784 37.0486 83.2791 36.9915C83.6731 36.8559 84.0732 36.7062 84.3913 36.429C85.166 35.7739 85.6452 34.8052 85.8278 33.8198C85.7043 33.3822 85.4754 32.9794 85.3096 32.5559C84.0631 29.6614 82.8166 26.7657 81.5674 23.8726C81.4922 23.6833 81.3815 23.5027 81.36 23.2973C81.3633 23.0711 81.6218 22.9724 81.8137 22.9657Z" fill="url(#paint4_linear_903_119)"/>
<path id="Vector_6" d="M23.705 24.3661C23.0257 24.4923 22.4054 24.9152 22.0604 25.5173C21.4831 26.4947 21.4173 27.6734 21.4429 28.7809C21.4845 29.7838 21.6456 30.8538 22.2859 31.6646C22.7632 32.2741 23.5479 32.5809 24.3111 32.5688C25.0448 32.5923 25.8134 32.3439 26.3114 31.7861C26.9464 31.0921 27.1505 30.1281 27.2378 29.2193C27.2767 28.3265 27.2941 27.4183 27.0632 26.5464C26.8786 25.81 26.4893 25.0736 25.816 24.6776C25.1891 24.293 24.4151 24.2574 23.705 24.3661ZM23.9923 22.7773C25.2227 22.7021 26.5115 22.9572 27.5264 23.6855C28.4346 24.3312 29.0515 25.326 29.3394 26.3926C29.6818 27.6667 29.6811 29.0259 29.3703 30.306C29.0777 31.4861 28.3936 32.599 27.3613 33.2696C26.2577 34.0013 24.8723 34.1912 23.5774 34.0348C22.4746 33.8992 21.3992 33.4159 20.6313 32.6037C19.7292 31.6586 19.2808 30.3564 19.1881 29.0696C19.074 27.6425 19.2928 26.1322 20.0876 24.9132C20.6749 23.9963 21.6093 23.3223 22.6518 23.0149C23.0861 22.8793 23.5392 22.8162 23.9923 22.7773Z" fill="url(#paint5_linear_903_119)"/>
<path id="Vector_7" d="M60.278 24.3078C59.6041 24.3514 58.953 24.7387 58.6523 25.3543C58.0636 26.492 58.0522 27.8158 58.0817 29.067C58.1287 29.8845 58.2166 30.7283 58.5986 31.466C58.8557 31.9627 59.3235 32.3561 59.8773 32.4762C60.7244 32.6796 61.7206 32.5071 62.3227 31.8385C62.9026 31.1787 63.0939 30.2813 63.1832 29.4321C63.2436 28.4635 63.2483 27.4761 63.0073 26.5283C62.8422 25.8946 62.563 25.2616 62.0609 24.8213C61.5789 24.3984 60.9077 24.2346 60.278 24.3078ZM63.1798 18.1706C63.1644 17.9135 63.4269 17.7497 63.6551 17.7302C64.0209 17.7101 64.3868 17.7195 64.7533 17.7235C65.0318 17.7208 65.344 17.9282 65.3037 18.2377C65.3037 23.2909 65.3044 28.3434 65.303 33.3959C65.3218 33.657 65.0647 33.859 64.8237 33.8751C64.5324 33.8906 64.2411 33.8906 63.9511 33.8704C63.7464 33.857 63.5484 33.7261 63.4786 33.5308C63.3691 33.2019 63.3121 32.8615 63.2289 32.5273C62.8248 33.075 62.3045 33.559 61.6581 33.7993C60.7352 34.1389 59.7081 34.1443 58.7603 33.9134C58.2856 33.7952 57.8408 33.5789 57.4547 33.2784C57.0686 32.9779 56.7496 32.6 56.5184 32.1688C55.7968 30.8545 55.7115 29.3086 55.7565 27.8419C55.7827 26.5894 56.0216 25.267 56.8385 24.2729C57.4548 23.4305 58.4643 22.9472 59.4833 22.8203C60.4324 22.682 61.4614 22.8411 62.2468 23.4157C62.618 23.6775 62.9154 24.0272 63.1812 24.3937C63.1738 22.3196 63.1758 20.2454 63.1798 18.1706Z" fill="url(#paint6_linear_903_119)"/>
<path id="Vector_8" d="M73.3909 24.3709C73.0499 24.4359 72.7284 24.5783 72.4511 24.787C71.904 25.2133 71.6322 25.8892 71.4872 26.5457C71.2764 27.5875 71.2791 28.6635 71.3879 29.7174C71.4899 30.4913 71.6846 31.3176 72.2524 31.8895C72.7149 32.3755 73.4123 32.5534 74.0655 32.5212C74.7669 32.5467 75.4979 32.2856 75.9503 31.7345C76.5162 31.0498 76.676 30.1396 76.7585 29.2824C76.8109 28.2742 76.8116 27.2418 76.5283 26.2631C76.3491 25.6536 76.0222 25.0475 75.4697 24.6998C74.8609 24.3004 74.091 24.2635 73.3909 24.3709ZM72.4511 22.9874C73.4308 22.7203 74.4613 22.6996 75.4509 22.927C76.3652 23.1384 77.221 23.6513 77.7829 24.4105C78.3769 25.1891 78.677 26.1544 78.8018 27.1163C78.9099 27.858 78.8783 28.6091 78.8797 29.3569C78.8797 30.7055 78.8797 32.054 78.8763 33.4025C78.8911 33.567 78.787 33.7127 78.6528 33.7979C78.4266 33.9375 78.1453 33.8758 77.8929 33.8919C77.6097 33.8892 77.2371 33.914 77.0827 33.6193C76.9324 33.273 76.9008 32.887 76.8042 32.5225C76.4242 32.9843 76.0309 33.4603 75.4811 33.7267C74.6434 34.1409 73.6641 34.1161 72.7679 33.9415C71.6705 33.7254 70.6602 33.077 70.04 32.1426C69.3009 31.0552 69.0331 29.7127 69.0432 28.4151C69.0345 27.1498 69.2821 25.8422 69.9856 24.7723C70.5488 23.897 71.4516 23.2633 72.4511 22.9867V22.9874Z" fill="url(#paint7_linear_903_119)"/>
<path id="Vector_9" d="M92.0684 31.2724C91.5113 31.4772 91.1609 32.1189 91.3025 32.6988C91.4475 33.3788 92.2402 33.8433 92.9008 33.5916C93.5103 33.4057 93.8942 32.7116 93.7056 32.0987C93.5391 31.41 92.7215 31.0019 92.0684 31.2724ZM92.1456 30.9818C92.4759 30.9294 92.8343 30.9261 93.1411 31.0791C93.6633 31.3161 94.0385 31.8759 93.9821 32.4585C94.0251 33.1533 93.4404 33.7742 92.7732 33.8863C92.0214 34.046 91.2126 33.5017 91.0595 32.7525C90.8622 31.9987 91.3864 31.1503 92.1456 30.9818Z" fill="url(#paint8_linear_903_119)"/>
<path id="Vector_10" d="M92.3006 31.828C92.2993 31.9858 92.2986 32.1435 92.3006 32.3026C92.4389 32.2939 92.5812 32.3026 92.7181 32.265C92.8464 32.2113 92.8336 32.0482 92.7987 31.9388C92.6658 31.8092 92.4684 31.8428 92.3006 31.828ZM91.8831 31.5716C92.2825 31.5937 92.7302 31.4816 93.09 31.7038C93.38 31.922 93.239 32.3952 92.9115 32.4959C93.0061 32.7456 93.1377 32.9772 93.2572 33.2148L92.8088 33.2229C92.7014 33.0027 92.596 32.7798 92.4933 32.5583L92.3006 32.5543C92.2993 32.7765 92.2993 32.9987 92.2993 33.2202L91.8811 33.2155C91.8818 32.6671 91.8804 32.1193 91.8831 31.5716Z" fill="url(#paint9_linear_903_119)"/>
</g>
<defs>
<linearGradient id="paint0_linear_903_119" x1="0.012541" y1="0.940438" x2="93.9875" y2="38.5304" gradientUnits="userSpaceOnUse">
<stop stop-color="#FFF6FF"/>
<stop offset="0.552" stop-color="#FFF0FF"/>
<stop offset="0.877" stop-color="#EBD1F8"/>
</linearGradient>
<linearGradient id="paint1_linear_903_119" x1="0.0125452" y1="0.940316" x2="93.9875" y2="38.5303" gradientUnits="userSpaceOnUse">
<stop stop-color="#FFF6FF"/>
<stop offset="0.552" stop-color="#FFF0FF"/>
<stop offset="0.877" stop-color="#EBD1F8"/>
</linearGradient>
<linearGradient id="paint2_linear_903_119" x1="0.0125217" y1="0.940694" x2="93.9875" y2="38.5307" gradientUnits="userSpaceOnUse">
<stop stop-color="#FFF6FF"/>
<stop offset="0.552" stop-color="#FFF0FF"/>
<stop offset="0.877" stop-color="#EBD1F8"/>
</linearGradient>
<linearGradient id="paint3_linear_903_119" x1="0.0125117" y1="0.940449" x2="93.9875" y2="38.5304" gradientUnits="userSpaceOnUse">
<stop stop-color="#FFF6FF"/>
<stop offset="0.552" stop-color="#FFF0FF"/>
<stop offset="0.877" stop-color="#EBD1F8"/>
</linearGradient>
<linearGradient id="paint4_linear_903_119" x1="0.0125599" y1="0.940677" x2="93.9875" y2="38.5307" gradientUnits="userSpaceOnUse">
<stop stop-color="#FFF6FF"/>
<stop offset="0.552" stop-color="#FFF0FF"/>
<stop offset="0.877" stop-color="#EBD1F8"/>
</linearGradient>
<linearGradient id="paint5_linear_903_119" x1="0.0125285" y1="0.940846" x2="93.9875" y2="38.5308" gradientUnits="userSpaceOnUse">
<stop stop-color="#FFF6FF"/>
<stop offset="0.552" stop-color="#FFF0FF"/>
<stop offset="0.877" stop-color="#EBD1F8"/>
</linearGradient>
<linearGradient id="paint6_linear_903_119" x1="0.0125417" y1="0.940915" x2="93.9875" y2="38.5309" gradientUnits="userSpaceOnUse">
<stop stop-color="#FFF6FF"/>
<stop offset="0.552" stop-color="#FFF0FF"/>
<stop offset="0.877" stop-color="#EBD1F8"/>
</linearGradient>
<linearGradient id="paint7_linear_903_119" x1="0.0125037" y1="0.94089" x2="93.9875" y2="38.5309" gradientUnits="userSpaceOnUse">
<stop stop-color="#FFF6FF"/>
<stop offset="0.552" stop-color="#FFF0FF"/>
<stop offset="0.877" stop-color="#EBD1F8"/>
</linearGradient>
<linearGradient id="paint8_linear_903_119" x1="0.012426" y1="0.940659" x2="93.9875" y2="38.5307" gradientUnits="userSpaceOnUse">
<stop stop-color="#FFF6FF"/>
<stop offset="0.552" stop-color="#FFF0FF"/>
<stop offset="0.877" stop-color="#EBD1F8"/>
</linearGradient>
<linearGradient id="paint9_linear_903_119" x1="0.0123514" y1="0.940465" x2="93.9874" y2="38.5306" gradientUnits="userSpaceOnUse">
<stop stop-color="#FFF6FF"/>
<stop offset="0.552" stop-color="#FFF0FF"/>
<stop offset="0.877" stop-color="#EBD1F8"/>
</linearGradient>
<clipPath id="clip0_903_119">
<rect width="93.975" height="37.59" fill="white" transform="translate(0.0125122 0.94043)"/>
</clipPath>
</defs>
</svg>
